SplineFontDB: 3.0
FontName: Bodoni-36-Bold-Italic
FullName: Bodoni* 36 Bold Italic
FamilyName: Bodoni* 36
Weight: Bold
Copyright: Copyright (c) 2017, Owen Earl,,, (EwonRael@yahoo.com)
Version: 001.0
ItalicAngle: -13
UnderlinePosition: -409.6
UnderlineWidth: 204.8
Ascent: 3277
Descent: 819
InvalidEm: 0
LayerCount: 2
Layer: 0 0 "Back" 1
Layer: 1 0 "Fore" 0
PreferredKerning: 4
XUID: [1021 31 -699969567 16487490]
FSType: 0
OS2Version: 0
OS2_WeightWidthSlopeOnly: 0
OS2_UseTypoMetrics: 1
CreationTime: 1460762150
ModificationTime: 1556908322
PfmFamily: 17
TTFWeight: 700
TTFWidth: 5
LineGap: 410
VLineGap: 0
OS2TypoAscent: 3277
OS2TypoAOffset: 0
OS2TypoDescent: -819
OS2TypoDOffset: 0
OS2TypoLinegap: 410
OS2WinAscent: 4096
OS2WinAOffset: 0
OS2WinDescent: 1638
OS2WinDOffset: 0
HheadAscent: 4096
HheadAOffset: 0
HheadDescent: -819
HheadDOffset: 0
OS2CapHeight: 700
OS2XHeight: 460
OS2FamilyClass: 768
OS2Vendor: 'PfEd'
OS2UnicodeRanges: 00000001.00000000.00000000.00000000
Lookup: 1 0 0 "'ss02' Style Set 2 lookup 4" { "'ss02' Style Set 2 lookup 4-1"  } ['ss02' ('DFLT' <'dflt' > 'grek' <'dflt' > 'latn' <'dflt' > ) ]
Lookup: 1 0 0 "'ss03' Style Set 3 lookup 5" { "'ss03' Style Set 3 lookup 5-1"  } ['ss03' ('DFLT' <'dflt' > 'grek' <'dflt' > 'latn' <'dflt' > ) ]
Lookup: 1 0 0 "'ss04' Style Set 4 lookup 5" { "'ss04' Style Set 4 lookup 5-1"  } ['ss04' ('DFLT' <'dflt' > 'grek' <'dflt' > 'latn' <'dflt' > ) ]
Lookup: 1 0 0 "'ss01' Style Set 1 lookup 2" { "'ss01' Style Set 1 lookup 2-1"  } ['ss01' ('DFLT' <'dflt' > 'grek' <'dflt' > 'latn' <'dflt' > ) ]
Lookup: 5 0 0 "'calt' Contextual Alternates lookup 3" { "'calt' Contextual Alternates lookup 3-1"  } ['calt' ('DFLT' <'dflt' > 'grek' <'dflt' > 'latn' <'dflt' > ) ]
Lookup: 4 0 1 "'liga' Standard Ligatures lookup 0" { "'liga' Standard Ligatures lookup 0-1"  } ['liga' ('DFLT' <'dflt' > 'grek' <'dflt' > 'latn' <'dflt' > ) ]

StartChar: ampersand
Encoding: 38 38 0
GlifName: ampersand
Width: 3436
Flags: HMW
LayerCount: 2
Fore
SplineSet
1401 33 m 0
 2310 33 3293 852 3305 1425 c 2
 3310 1483 l 1
 3273 1295 3105 1167 2925 1167 c 0
 2720 1167 2593 1339 2593 1503 c 0
 2593 1687 2756 1839 2949 1839 c 0
 3166 1839 3334 1667 3334 1438 c 0
 3334 865 2351 -41 1122 -41 c 0
 557 -41 82 135 82 635 c 0
 82 1593 2114 1528 2114 2646 c 0
 2114 2818 2056 3092 1884 3092 c 0
 1638 3092 1548 2798 1548 2540 c 0
 1548 2397 1598 2187 1729 1925 c 2
 2503 389 l 2
 2585 217 2666 41 2830 41 c 0
 2977 41 3117 131 3195 295 c 1
 3211 287 l 1
 3133 107 2945 -41 2580 -41 c 0
 2281 -41 2023 53 1806 434 c 2
 1040 1925 l 2
 950 2097 913 2245 913 2388 c 0
 913 2798 1364 3113 1921 3113 c 0
 2277 3113 2703 2986 2703 2634 c 0
 2703 1839 737 2093 737 676 c 0
 737 340 1016 33 1401 33 c 0
EndSplineSet
EndChar

StartChar: period
Encoding: 46 46 1
GlifName: period
Width: 1064
Flags: HMW
LayerCount: 2
Fore
SplineSet
102 328 m 0
 102 533 266 696 471 696 c 0
 676 696 840 533 840 328 c 0
 840 123 676 -41 471 -41 c 0
 266 -41 102 123 102 328 c 0
EndSplineSet
EndChar

StartChar: zero
Encoding: 48 48 2
GlifName: zero
Width: 2703
Flags: HMW
LayerCount: 2
Fore
SplineSet
1892 3113 m 0
 2457 3113 2798 2662 2798 2154 c 0
 2798 970 2019 -41 1196 -41 c 0
 631 -41 291 410 291 918 c 0
 291 2102 1069 3113 1892 3113 c 0
1892 3092 m 0
 1335 3092 897 1290 897 569 c 0
 897 262 942 -20 1196 -20 c 0
 1753 -20 2191 1823 2191 2503 c 0
 2191 2810 2146 3092 1892 3092 c 0
EndSplineSet
EndChar

StartChar: one
Encoding: 49 49 3
GlifName: one
Width: 2027
VWidth: 4730
Flags: HMW
LayerCount: 2
Fore
SplineSet
-164 25 m 1
 1372 25 l 1
 1372 0 l 1
 -164 0 l 1
 -164 25 l 1
975 3047 m 1
 500 3047 l 1
 500 3072 l 1
 1618 3072 l 1
 922 0 l 1
 287 0 l 1
 975 3047 l 1
EndSplineSet
EndChar

StartChar: two
Encoding: 50 50 4
GlifName: two
Width: 2478
VWidth: 4730
Flags: HMW
LayerCount: 2
Fore
SplineSet
418 2212 m 1
 451 2355 585 2486 786 2486 c 0
 974 2486 1126 2351 1126 2163 c 0
 1126 1938 938 1790 754 1790 c 0
 570 1790 381 1913 381 2167 c 0
 381 2646 893 3113 1536 3113 c 0
 1991 3113 2425 2929 2425 2474 c 0
 2425 1987 1647 1597 1319 1376 c 2
 291 614 l 1
 2056 614 l 1
 2126 922 l 1
 2150 922 l 1
 1942 0 l 1
 -168 0 l 1
 -70 410 l 1
 1020 1192 l 2
 1454 1495 1765 1995 1765 2396 c 0
 1765 2777 1618 3015 1278 3015 c 0
 860 3015 434 2613 418 2212 c 1
EndSplineSet
EndChar

StartChar: three
Encoding: 51 51 5
GlifName: three
Width: 2359
VWidth: 4730
Flags: HMW
LayerCount: 2
Fore
SplineSet
582 2478 m 0
 582 2814 979 3109 1479 3109 c 0
 1934 3109 2400 2978 2400 2507 c 0
 2400 2036 1900 1655 954 1655 c 1
 954 1679 l 1
 1605 1679 1761 2310 1761 2605 c 0
 1761 2924 1655 3072 1372 3072 c 0
 1069 3072 746 2883 664 2654 c 1
 697 2707 807 2781 942 2781 c 0
 1130 2781 1253 2638 1253 2454 c 0
 1253 2249 1082 2122 918 2122 c 0
 734 2122 582 2269 582 2478 c 0
20 647 m 0
 20 876 164 1028 369 1028 c 0
 553 1028 692 884 692 696 c 0
 692 503 536 369 356 369 c 0
 209 369 103 454 70 528 c 1
 107 270 389 -8 860 -8 c 0
 1347 -8 1536 626 1536 1044 c 0
 1536 1363 1421 1651 954 1651 c 1
 954 1671 l 1
 1818 1671 2175 1417 2175 946 c 0
 2175 348 1523 -41 905 -41 c 0
 303 -41 20 332 20 647 c 0
EndSplineSet
EndChar

StartChar: four
Encoding: 52 52 6
GlifName: four
Width: 2703
VWidth: 4730
Flags: HMW
LayerCount: 2
Fore
SplineSet
2273 25 m 1
 2273 0 l 1
 942 0 l 1
 942 25 l 1
 2273 25 l 1
2662 3072 m 1
 1925 0 l 1
 1290 0 l 1
 1942 2839 l 1
 229 893 l 1
 2580 893 l 1
 2580 868 l 1
 176 868 l 1
 2122 3072 l 1
 2662 3072 l 1
EndSplineSet
Substitution2: "'ss03' Style Set 3 lookup 5-1" four.alt
EndChar

StartChar: five
Encoding: 53 53 7
GlifName: five
Width: 2306
VWidth: 4730
Flags: HMW
LayerCount: 2
Fore
SplineSet
2163 1126 m 0
 2163 430 1421 -41 803 -41 c 0
 303 -41 0 254 0 590 c 0
 0 799 152 946 336 946 c 0
 500 946 672 819 672 614 c 0
 672 409 516 287 336 287 c 0
 184 287 74 385 49 459 c 1
 106 205 369 -12 762 -12 c 0
 1290 -12 1507 762 1507 1229 c 0
 1507 1573 1376 1823 1114 1823 c 0
 827 1823 524 1688 385 1483 c 1
 360 1483 l 1
 507 1716 856 1864 1229 1864 c 0
 1766 1864 2163 1658 2163 1126 c 0
2347 2458 m 1
 709 2458 l 1
 369 1483 l 1
 348 1483 l 1
 889 3072 l 1
 2458 3072 l 1
 2507 3297 l 1
 2531 3297 l 1
 2347 2458 l 1
EndSplineSet
EndChar

StartChar: six
Encoding: 54 54 8
GlifName: six
Width: 2498
VWidth: 4730
Flags: HMW
LayerCount: 2
Fore
SplineSet
1761 1413 m 0
 1761 1737 1704 1925 1532 1925 c 0
 1024 1925 827 946 827 512 c 1
 803 512 l 1
 803 942 971 2015 1651 2015 c 0
 2024 2015 2417 1802 2417 1229 c 0
 2417 533 1740 -41 1081 -41 c 0
 585 -41 205 246 205 901 c 0
 205 1855 1237 3113 2519 3113 c 1
 2519 3092 l 1
 1446 3092 831 1675 831 684 c 1
 827 512 l 1
 827 229 905 -16 1102 -16 c 0
 1471 -16 1761 946 1761 1413 c 0
EndSplineSet
EndChar

StartChar: seven
Encoding: 55 55 9
GlifName: seven
Width: 2277
VWidth: 4730
Flags: HMW
LayerCount: 2
Fore
SplineSet
582 352 m 0
 582 712 1098 1135 1450 1561 c 0
 1679 1831 1896 2118 2150 2437 c 1
 565 2437 l 1
 492 2130 l 1
 467 2130 l 1
 680 3072 l 1
 2687 3072 l 1
 2687 3072 1974 2150 1556 1638 c 0
 1261 1278 1049 1048 1049 864 c 0
 1049 671 1339 619 1339 340 c 0
 1339 127 1188 -41 946 -41 c 0
 745 -41 582 90 582 352 c 0
EndSplineSet
EndChar

StartChar: eight
Encoding: 56 56 10
GlifName: eight
Width: 2498
VWidth: 4730
Flags: HMW
LayerCount: 2
Fore
SplineSet
1126 2007 m 0
 1126 1814 1159 1581 1343 1581 c 0
 1646 1581 1864 2203 1864 2621 c 0
 1864 2793 1831 3088 1634 3088 c 0
 1372 3088 1126 2425 1126 2007 c 0
492 2150 m 0
 492 2642 999 3113 1638 3113 c 0
 2195 3113 2499 2765 2499 2437 c 0
 2499 1925 1930 1565 1352 1565 c 0
 856 1565 492 1822 492 2150 c 0
737 492 m 0
 737 218 823 -16 1044 -16 c 0
 1388 -16 1618 647 1618 1065 c 0
 1618 1339 1532 1556 1311 1556 c 0
 967 1556 737 910 737 492 c 0
123 614 m 0
 123 1106 508 1577 1270 1577 c 0
 1909 1577 2253 1352 2253 942 c 0
 2253 450 1868 -41 1106 -41 c 0
 467 -41 123 204 123 614 c 0
EndSplineSet
EndChar

StartChar: A
Encoding: 65 65 12
GlifName: A_
Width: 3162
Flags: HMW
LayerCount: 2
Fore
SplineSet
-197 25 m 1
 705 25 l 1
 705 0 l 1
 -197 0 l 1
 -197 25 l 1
1442 25 m 1
 2875 25 l 1
 2875 0 l 1
 1442 0 l 1
 1442 25 l 1
762 1016 m 1
 2097 1016 l 1
 2097 991 l 1
 762 991 l 1
 762 1016 l 1
1659 2527 m 1
 197 0 l 1
 172 0 l 1
 1974 3133 l 1
 2204 3133 l 1
 2589 0 l 1
 1917 0 l 1
 1659 2527 l 1
EndSplineSet
EndChar

StartChar: B
Encoding: 66 66 13
GlifName: B_
Width: 2793
Flags: HMW
LayerCount: 2
Fore
SplineSet
1196 0 m 2
 -197 0 l 1
 -197 25 l 1
 1196 25 l 2
 1589 25 1892 496 1892 1065 c 0
 1892 1430 1736 1565 1466 1565 c 2
 991 1565 l 1
 991 1585 l 1
 1548 1585 l 2
 2126 1585 2589 1413 2589 942 c 0
 2589 328 1917 0 1196 0 c 2
893 3072 m 1
 1524 3072 l 1
 811 0 l 1
 172 0 l 1
 893 3072 l 1
1483 1569 m 2
 991 1569 l 1
 991 1589 l 1
 1483 1589 l 2
 1794 1589 2163 1991 2163 2560 c 0
 2163 2822 2052 3047 1782 3047 c 2
 524 3047 l 1
 524 3072 l 1
 1794 3072 l 2
 2494 3072 2818 2888 2818 2437 c 0
 2818 1905 2142 1569 1483 1569 c 2
EndSplineSet
EndChar

StartChar: C
Encoding: 67 67 14
GlifName: C_
Width: 2846
Flags: HMW
LayerCount: 2
Fore
SplineSet
1360 -41 m 0
 672 -41 213 376 213 1044 c 0
 213 2162 1045 3113 2040 3113 c 0
 2564 3113 2888 2757 2908 2171 c 1
 2884 2171 l 1
 2851 2798 2486 3068 2138 3068 c 0
 1323 3068 893 1606 893 758 c 0
 893 361 1016 0 1442 0 c 0
 1929 0 2360 401 2630 901 c 1
 2654 901 l 1
 2408 397 1946 -41 1360 -41 c 0
2884 2171 m 1
 2875 2335 l 1
 2850 2499 2785 2679 2703 2785 c 1
 3097 3072 l 1
 3113 3072 l 1
 2908 2171 l 1
 2884 2171 l 1
2630 901 m 1
 2654 901 l 1
 2425 0 l 1
 2408 0 l 1
 2159 279 l 1
 2265 377 2438 541 2544 721 c 1
 2630 901 l 1
EndSplineSet
EndChar

StartChar: D
Encoding: 68 68 15
GlifName: D_
Width: 3100
Flags: HMW
LayerCount: 2
Fore
SplineSet
909 3072 m 1
 1548 3072 l 1
 852 0 l 1
 213 0 l 1
 909 3072 l 1
1262 0 m 2
 -156 0 l 1
 -156 25 l 1
 1180 25 l 2
 1995 25 2408 1487 2408 2253 c 0
 2408 2630 2297 3047 1851 3047 c 2
 500 3047 l 1
 500 3072 l 1
 1917 3072 l 2
 2585 3072 3105 2716 3105 1987 c 0
 3105 930 2319 0 1262 0 c 2
EndSplineSet
EndChar

StartChar: E
Encoding: 69 69 16
GlifName: E_
Width: 2523
Flags: HMW
LayerCount: 2
Fore
SplineSet
500 3072 m 1
 2834 3072 l 1
 2638 2232 l 1
 2613 2232 l 1
 2654 2670 2453 3047 1974 3047 c 2
 500 3047 l 1
 500 3072 l 1
868 3072 m 1
 1499 3072 l 1
 786 0 l 1
 156 0 l 1
 868 3072 l 1
1311 1577 m 2
 1040 1577 l 1
 1040 1602 l 1
 1311 1602 l 2
 1544 1602 1819 1807 1942 2081 c 1
 1966 2081 l 1
 1737 1077 l 1
 1712 1077 l 1
 1712 1351 1544 1577 1311 1577 c 2
2163 0 m 1
 -197 0 l 1
 -197 25 l 1
 1262 25 l 2
 1823 25 2171 402 2351 922 c 1
 2376 922 l 1
 2163 0 l 1
EndSplineSet
EndChar

StartChar: F
Encoding: 70 70 17
GlifName: F_
Width: 2420
Flags: HMW
LayerCount: 2
Fore
SplineSet
1237 1516 m 2
 1049 1516 l 1
 1049 1540 l 1
 1237 1540 l 2
 1548 1540 1810 1745 1925 2019 c 1
 1950 2019 l 1
 1720 1016 l 1
 1696 1016 l 1
 1696 1290 1552 1516 1237 1516 c 2
-197 25 m 1
 1196 25 l 1
 1196 0 l 1
 -197 0 l 1
 -197 25 l 1
868 3072 m 1
 1499 3072 l 1
 786 0 l 1
 156 0 l 1
 868 3072 l 1
500 3072 m 1
 2769 3072 l 1
 2572 2232 l 1
 2548 2232 l 1
 2589 2670 2412 3047 1933 3047 c 2
 500 3047 l 1
 500 3072 l 1
EndSplineSet
EndChar

StartChar: G
Encoding: 71 71 18
GlifName: G_
Width: 3194
Flags: HMW
LayerCount: 2
Fore
SplineSet
2195 1163 m 1
 2867 1163 l 1
 2744 676 l 1
 2560 418 2028 -41 1360 -41 c 0
 692 -41 213 335 213 1044 c 0
 213 2203 1122 3113 2097 3113 c 0
 2621 3113 2982 2757 2990 2171 c 1
 2966 2171 l 1
 2958 2744 2601 3064 2204 3064 c 0
 1368 3064 893 1688 893 799 c 0
 893 381 987 -12 1352 -12 c 0
 1717 -12 1921 340 2023 512 c 1
 2195 1163 l 1
1794 1180 m 1
 3105 1180 l 1
 3105 1155 l 1
 1794 1155 l 1
 1794 1180 l 1
3178 3072 m 1
 3195 3072 l 1
 2990 2171 l 1
 2966 2171 l 1
 2957 2318 l 1
 2945 2449 2859 2695 2761 2810 c 1
 3178 3072 l 1
EndSplineSet
EndChar

StartChar: H
Encoding: 72 72 19
GlifName: H_
Width: 3182
Flags: HMW
LayerCount: 2
Fore
SplineSet
1565 25 m 1
 2900 25 l 1
 2900 0 l 1
 1565 0 l 1
 1565 25 l 1
2245 3072 m 1
 3572 3072 l 1
 3572 3047 l 1
 2245 3047 l 1
 2245 3072 l 1
2589 3072 m 1
 3228 3072 l 1
 2531 0 l 1
 1892 0 l 1
 2589 3072 l 1
-172 25 m 1
 1155 25 l 1
 1155 0 l 1
 -172 0 l 1
 -172 25 l 1
500 3072 m 1
 1835 3072 l 1
 1835 3047 l 1
 500 3047 l 1
 500 3072 l 1
868 3072 m 1
 1507 3072 l 1
 811 0 l 1
 172 0 l 1
 868 3072 l 1
885 1528 m 1
 2359 1528 l 1
 2359 1503 l 1
 885 1503 l 1
 885 1528 l 1
EndSplineSet
EndChar

StartChar: I
Encoding: 73 73 20
GlifName: I_
Width: 1667
Flags: HMW
LayerCount: 2
Fore
SplineSet
-172 25 m 1
 1384 25 l 1
 1384 0 l 1
 -172 0 l 1
 -172 25 l 1
500 3072 m 1
 2056 3072 l 1
 2056 3047 l 1
 500 3047 l 1
 500 3072 l 1
975 3072 m 1
 1606 3072 l 1
 909 0 l 1
 279 0 l 1
 975 3072 l 1
EndSplineSet
EndChar

StartChar: J
Encoding: 74 74 21
GlifName: J_
Width: 2142
Flags: HMW
LayerCount: 2
Fore
SplineSet
934 3072 m 1
 2531 3072 l 1
 2531 3047 l 1
 934 3047 l 1
 934 3072 l 1
-66 299 m 1
 -33 111 163 -90 442 -90 c 0
 692 -90 836 205 967 778 c 2
 1491 3072 l 1
 2122 3072 l 1
 1589 692 l 1
 1323 303 1004 -123 508 -123 c 0
 111 -123 -131 143 -131 430 c 0
 -131 643 21 819 246 819 c 0
 430 819 598 684 598 455 c 0
 598 234 417 94 229 94 c 0
 98 94 -29 184 -66 299 c 1
EndSplineSet
Substitution2: "'ss02' Style Set 2 lookup 4-1" J.alt
EndChar

StartChar: K
Encoding: 75 75 22
GlifName: K_
Width: 3108
Flags: HMW
LayerCount: 2
Fore
SplineSet
-172 25 m 1
 1155 25 l 1
 1155 0 l 1
 -172 0 l 1
 -172 25 l 1
500 3072 m 1
 1876 3072 l 1
 1876 3047 l 1
 500 3047 l 1
 500 3072 l 1
868 3072 m 1
 1507 3072 l 1
 811 0 l 1
 172 0 l 1
 868 3072 l 1
635 889 m 1
 590 889 l 1
 2912 3064 l 1
 2953 3064 l 1
 635 889 l 1
1393 25 m 1
 2859 25 l 1
 2859 0 l 1
 1393 0 l 1
 1393 25 l 1
3359 3047 m 1
 2376 3047 l 1
 2376 3072 l 1
 3359 3072 l 1
 3359 3047 l 1
2523 0 m 1
 1819 0 l 1
 1298 1544 l 1
 1819 2007 l 1
 2523 0 l 1
EndSplineSet
EndChar

StartChar: L
Encoding: 76 76 23
GlifName: L_
Width: 2486
Flags: HMW
LayerCount: 2
Fore
SplineSet
868 3072 m 1
 1499 3072 l 1
 786 0 l 1
 156 0 l 1
 868 3072 l 1
500 3072 m 1
 1868 3072 l 1
 1868 3047 l 1
 500 3047 l 1
 500 3072 l 1
2150 0 m 1
 -197 0 l 1
 -197 25 l 1
 1208 25 l 2
 1851 25 2159 402 2339 922 c 1
 2363 922 l 1
 2150 0 l 1
EndSplineSet
EndChar

StartChar: M
Encoding: 77 77 24
GlifName: M_
Width: 3653
Flags: HMW
LayerCount: 2
Fore
SplineSet
2122 25 m 1
 3367 25 l 1
 3367 0 l 1
 2122 0 l 1
 2122 25 l 1
3686 3047 m 1
 3039 0 l 1
 2408 0 l 1
 3064 3072 l 1
 3940 3072 l 1
 3940 3047 l 1
 3686 3047 l 1
1819 872 m 1
 3047 3072 l 1
 3080 3072 l 1
 1335 -41 l 1
 1303 -41 l 1
 819 3072 l 1
 1458 3072 l 1
 1819 872 l 1
811 3047 m 1
 500 3047 l 1
 500 3072 l 1
 844 3072 l 1
 188 0 l 1
 164 0 l 1
 811 3047 l 1
-115 25 m 1
 532 25 l 1
 532 0 l 1
 -115 0 l 1
 -115 25 l 1
EndSplineSet
EndChar

StartChar: N
Encoding: 78 78 25
GlifName: N_
Width: 3039
Flags: HMW
LayerCount: 2
Fore
SplineSet
2982 3072 m 1
 3006 3072 l 1
 2302 -41 l 1
 2245 -41 l 1
 909 3072 l 1
 1671 3072 l 1
 2523 1057 l 1
 2982 3072 l 1
2490 3072 m 1
 3432 3072 l 1
 3432 3047 l 1
 2490 3047 l 1
 2490 3072 l 1
-156 25 m 1
 754 25 l 1
 754 0 l 1
 -156 0 l 1
 -156 25 l 1
918 3047 m 1
 500 3047 l 1
 500 3072 l 1
 946 3072 l 1
 254 0 l 1
 238 0 l 1
 918 3047 l 1
EndSplineSet
EndChar

StartChar: O
Encoding: 79 79 26
GlifName: O_
Width: 3080
Flags: HMW
LayerCount: 2
Fore
SplineSet
1303 -41 m 0
 615 -41 213 376 213 1044 c 0
 213 2244 1127 3113 1999 3113 c 0
 2646 3113 3080 2696 3080 2028 c 0
 3080 828 2216 -41 1303 -41 c 0
1999 3092 m 0
 1368 3092 868 1626 868 676 c 0
 868 242 979 -20 1303 -20 c 0
 1975 -20 2425 1446 2425 2396 c 0
 2425 2748 2323 3092 1999 3092 c 0
EndSplineSet
EndChar

StartChar: P
Encoding: 80 80 27
GlifName: P_
Width: 2744
Flags: HMW
LayerCount: 2
Fore
SplineSet
868 3072 m 1
 1507 3072 l 1
 786 0 l 1
 156 0 l 1
 868 3072 l 1
-172 25 m 1
 1196 25 l 1
 1196 0 l 1
 -172 0 l 1
 -172 25 l 1
1507 1380 m 2
 1057 1380 l 1
 1057 1405 l 1
 1401 1405 l 2
 1917 1405 2175 2053 2175 2499 c 0
 2175 2741 2101 3047 1810 3047 c 2
 500 3047 l 1
 500 3072 l 1
 1917 3072 l 2
 2454 3072 2867 2888 2867 2396 c 0
 2867 1782 2330 1380 1507 1380 c 2
EndSplineSet
EndChar

StartChar: Q
Encoding: 81 81 28
GlifName: Q_
Width: 3018
Flags: HMW
LayerCount: 2
Fore
SplineSet
1958 -999 m 1
 1958 -1024 l 1
 1045 -1024 745 -689 950 20 c 1
 1179 -46 1429 -41 1671 20 c 1
 1466 -725 1606 -999 1958 -999 c 1
1999 3092 m 0
 1368 3092 868 1626 868 676 c 0
 868 258 979 -20 1303 -20 c 0
 1975 -20 2425 1446 2425 2396 c 0
 2425 2732 2323 3092 1999 3092 c 0
1303 -41 m 0
 615 -41 213 376 213 1044 c 0
 213 2244 1127 3113 1999 3113 c 0
 2646 3113 3080 2696 3080 2028 c 0
 3080 828 2216 -41 1303 -41 c 0
EndSplineSet
EndChar

StartChar: R
Encoding: 82 82 29
GlifName: R_
Width: 3141
Flags: HMW
LayerCount: 2
Fore
SplineSet
2834 49 m 1
 2687 -8 2555 -33 2367 -33 c 0
 1228 -33 2450 1565 1442 1565 c 2
 1114 1565 l 1
 1114 1577 l 1
 1630 1577 l 2
 3137 1577 2163 25 2626 25 c 0
 2696 25 2760 49 2826 74 c 1
 2834 49 l 1
950 3072 m 1
 1589 3072 l 1
 868 0 l 1
 238 0 l 1
 950 3072 l 1
-156 25 m 1
 1319 25 l 1
 1319 0 l 1
 -156 0 l 1
 -156 25 l 1
1630 1569 m 2
 1114 1569 l 1
 1114 1589 l 1
 1524 1589 l 2
 2102 1589 2314 2195 2314 2560 c 0
 2314 2761 2252 3047 1892 3047 c 2
 524 3047 l 1
 524 3072 l 1
 2040 3072 l 2
 2577 3072 2982 2909 2982 2458 c 0
 2982 1885 2453 1569 1630 1569 c 2
EndSplineSet
Substitution2: "'ss01' Style Set 1 lookup 2-1" R.alt
EndChar

StartChar: S
Encoding: 83 83 30
GlifName: S_
Width: 2428
Flags: HMW
LayerCount: 2
Fore
SplineSet
2331 2343 m 1
 2294 2499 2224 2704 2109 2851 c 1
 2556 3113 l 1
 2572 3113 l 1
 2367 2191 l 1
 2343 2191 l 1
 2331 2343 l 1
2367 2191 m 1
 2343 2191 l 1
 2282 2707 2031 3080 1548 3080 c 0
 1257 3080 967 2883 967 2572 c 0
 967 1884 2245 2068 2245 1024 c 0
 2245 451 1708 -61 1049 -61 c 0
 410 -61 193 430 123 922 c 1
 147 922 l 1
 208 471 426 -33 1024 -33 c 0
 1438 -33 1720 222 1720 582 c 0
 1720 1393 451 1146 451 2109 c 0
 451 2764 1069 3113 1524 3113 c 0
 2048 3113 2306 2728 2367 2191 c 1
-74 -41 m 1
 -90 -41 l 1
 123 922 l 1
 147 922 l 1
 172 721 l 1
 213 553 303 353 389 242 c 1
 -74 -41 l 1
EndSplineSet
EndChar

StartChar: T
Encoding: 84 84 31
GlifName: T_
Width: 2752
Flags: HMW
LayerCount: 2
Fore
SplineSet
385 25 m 1
 1921 25 l 1
 1921 0 l 1
 385 0 l 1
 385 25 l 1
1524 3072 m 1
 2159 3072 l 1
 1446 0 l 1
 811 0 l 1
 1524 3072 l 1
2404 3047 m 2
 1237 3047 l 2
 799 3047 499 2605 319 2089 c 1
 295 2089 l 1
 520 3072 l 1
 3162 3072 l 1
 2941 2089 l 1
 2916 2089 l 1
 2973 2609 2842 3047 2404 3047 c 2
EndSplineSet
EndChar

StartChar: U
Encoding: 85 85 32
GlifName: U_
Width: 2908
Flags: HMW
LayerCount: 2
Fore
SplineSet
2499 3072 m 1
 3301 3072 l 1
 3301 3047 l 1
 2499 3047 l 1
 2499 3072 l 1
492 3072 m 1
 1909 3072 l 1
 1909 3047 l 1
 492 3047 l 1
 492 3072 l 1
2916 3072 m 1
 2941 3072 l 1
 2449 942 l 2
 2302 299 1958 -61 1311 -61 c 0
 643 -61 237 270 393 942 c 2
 885 3072 l 1
 1516 3072 l 1
 1024 983 l 2
 905 471 942 -4 1450 -4 c 0
 1950 -4 2286 319 2425 942 c 2
 2916 3072 l 1
EndSplineSet
EndChar

StartChar: V
Encoding: 86 86 33
GlifName: V_
Width: 3141
Flags: HMW
LayerCount: 2
Fore
SplineSet
3555 3047 m 1
 2654 3047 l 1
 2654 3072 l 1
 3555 3072 l 1
 3555 3047 l 1
1917 3047 m 1
 483 3047 l 1
 483 3072 l 1
 1917 3072 l 1
 1917 3047 l 1
1700 565 m 1
 3154 3072 l 1
 3178 3072 l 1
 1384 -37 l 1
 1155 -37 l 1
 770 3072 l 1
 1442 3072 l 1
 1700 565 l 1
EndSplineSet
EndChar

StartChar: W
Encoding: 87 87 34
GlifName: W_
Width: 4485
Flags: HMW
LayerCount: 2
Fore
SplineSet
1819 688 m 1
 2490 1831 l 1
 2515 1831 l 1
 1417 -41 l 1
 1221 -41 l 1
 819 3072 l 1
 1528 3072 l 1
 1819 688 l 1
2736 1708 m 1
 2712 1708 l 1
 3523 3072 l 1
 3547 3072 l 1
 2736 1708 l 1
4899 3047 m 1
 4096 3047 l 1
 4096 3072 l 1
 4899 3072 l 1
 4899 3047 l 1
3924 3047 m 1
 483 3047 l 1
 483 3072 l 1
 3924 3072 l 1
 3924 3047 l 1
3080 692 m 1
 4489 3072 l 1
 4514 3072 l 1
 2671 -41 l 1
 2535 -41 l 1
 2130 3072 l 1
 2777 3072 l 1
 3080 692 l 1
EndSplineSet
EndChar

StartChar: X
Encoding: 88 88 35
GlifName: X_
Width: 3182
Flags: HMW
LayerCount: 2
Fore
SplineSet
1737 1544 m 1
 1696 1544 l 1
 2982 3064 l 1
 3015 3064 l 1
 1737 1544 l 1
238 0 m 1
 205 0 l 1
 1688 1708 l 1
 1724 1708 l 1
 238 0 l 1
1548 25 m 1
 2941 25 l 1
 2941 0 l 1
 1548 0 l 1
 1548 25 l 1
-213 25 m 1
 770 25 l 1
 770 0 l 1
 -213 0 l 1
 -213 25 l 1
2015 3047 m 1
 623 3047 l 1
 623 3072 l 1
 2015 3072 l 1
 2015 3047 l 1
3432 3047 m 1
 2531 3047 l 1
 2531 3072 l 1
 3432 3072 l 1
 3432 3047 l 1
2654 0 m 1
 1942 0 l 1
 909 3072 l 1
 1614 3072 l 1
 2654 0 l 1
EndSplineSet
EndChar

StartChar: Y
Encoding: 89 89 36
GlifName: Y_
Width: 3080
Flags: HMW
LayerCount: 2
Fore
SplineSet
3490 3047 m 1
 2630 3047 l 1
 2630 3072 l 1
 3490 3072 l 1
 3490 3047 l 1
1901 3047 m 1
 483 3047 l 1
 483 3072 l 1
 1901 3072 l 1
 1901 3047 l 1
623 25 m 1
 2040 25 l 1
 2040 0 l 1
 623 0 l 1
 623 25 l 1
1970 1610 m 1
 3121 3064 l 1
 3154 3064 l 1
 1974 1569 l 1
 1630 0 l 1
 991 0 l 1
 1343 1544 l 1
 770 3072 l 1
 1475 3072 l 1
 1970 1610 l 1
EndSplineSet
EndChar

StartChar: Z
Encoding: 90 90 37
GlifName: Z_
Width: 2482
Flags: HMW
LayerCount: 2
Fore
SplineSet
1962 3047 m 1
 1401 3047 l 2
 840 3047 590 2752 406 2314 c 1
 381 2314 l 1
 557 3072 l 1
 2753 3072 l 1
 2753 3047 l 1
 573 25 l 1
 1262 25 l 2
 1823 25 2048 324 2269 840 c 1
 2294 840 l 1
 2097 0 l 1
 -213 0 l 1
 -213 25 l 1
 1962 3047 l 1
EndSplineSet
EndChar

StartChar: a
Encoding: 97 97 38
GlifName: a
Width: 2625
VWidth: 4730
Flags: HMW
LayerCount: 2
Fore
SplineSet
1548 1286 m 0
 1548 1544 1475 1778 1315 1778 c 0
 1032 1778 696 1065 696 516 c 0
 696 262 775 94 922 94 c 0
 1274 94 1548 844 1548 1286 c 0
1569 1286 m 0
 1569 844 1295 -41 717 -41 c 0
 434 -41 66 123 66 655 c 0
 66 1474 709 1925 1135 1925 c 0
 1446 1925 1569 1663 1569 1286 c 0
2544 668 m 1
 2388 258 2105 -41 1712 -41 c 0
 1458 -41 1360 74 1360 279 c 0
 1360 299 1368 352 1376 385 c 2
 1462 737 l 1
 1540 1024 l 1
 1556 1221 l 1
 1729 1884 l 1
 2290 1884 l 1
 1860 205 l 2
 1856 180 1851 151 1851 131 c 0
 1851 86 1872 49 1925 49 c 0
 2150 49 2400 348 2523 676 c 1
 2544 668 l 1
EndSplineSet
EndChar

StartChar: b
Encoding: 98 98 39
GlifName: b
Width: 2494
VWidth: 4730
Flags: HMW
LayerCount: 2
Fore
SplineSet
856 3047 m 1
 541 3047 l 1
 541 3072 l 1
 1434 3072 l 1
 836 471 l 1
 836 229 889 -16 1057 -16 c 0
 1381 -16 1741 819 1741 1368 c 0
 1741 1589 1663 1786 1516 1786 c 0
 1287 1786 1053 1425 942 942 c 1
 926 942 l 1
 1082 1647 1397 1921 1729 1921 c 0
 2003 1921 2372 1794 2372 1270 c 0
 2372 410 1725 -41 1053 -41 c 0
 721 -41 454 152 270 492 c 1
 856 3047 l 1
EndSplineSet
EndChar

StartChar: c
Encoding: 99 99 40
GlifName: c
Width: 2027
VWidth: 4730
Flags: HMW
LayerCount: 2
Fore
SplineSet
1905 1532 m 1
 1864 1725 1671 1888 1401 1888 c 0
 934 1888 696 1061 696 553 c 0
 696 209 766 33 946 33 c 0
 1184 33 1487 201 1716 586 c 1
 1741 586 l 1
 1512 189 1172 -41 758 -41 c 0
 426 -41 66 123 66 635 c 0
 66 1413 689 1925 1307 1925 c 0
 1684 1925 1966 1724 1966 1409 c 0
 1966 1180 1814 1040 1630 1040 c 0
 1466 1040 1294 1147 1294 1352 c 0
 1294 1557 1483 1671 1622 1671 c 0
 1782 1671 1868 1610 1905 1532 c 1
EndSplineSet
EndChar

StartChar: d
Encoding: 100 100 41
GlifName: d
Width: 2666
VWidth: 4730
Flags: HMW
LayerCount: 2
Fore
SplineSet
2589 668 m 1
 2433 258 2146 -41 1753 -41 c 0
 1499 -41 1368 53 1368 299 c 0
 1368 319 1376 364 1380 389 c 2
 1466 745 l 1
 1540 1036 l 1
 1556 1217 l 1
 1982 3047 l 1
 1597 3047 l 1
 1597 3072 l 1
 2556 3072 l 1
 1901 205 l 2
 1897 180 1892 151 1892 131 c 0
 1892 86 1909 49 1966 49 c 0
 2187 49 2445 340 2564 676 c 1
 2589 668 l 1
1548 1286 m 0
 1548 1544 1475 1778 1315 1778 c 0
 1032 1778 696 1065 696 516 c 0
 696 262 775 94 922 94 c 0
 1274 94 1548 844 1548 1286 c 0
1569 1286 m 0
 1569 844 1295 -41 717 -41 c 0
 434 -41 66 123 66 655 c 0
 66 1474 708 1925 1130 1925 c 0
 1441 1925 1569 1663 1569 1286 c 0
EndSplineSet
EndChar

StartChar: e
Encoding: 101 101 42
GlifName: e
Width: 2088
VWidth: 4730
Flags: HMW
LayerCount: 2
Fore
SplineSet
696 475 m 0
 696 233 766 16 967 16 c 0
 1278 16 1618 283 1798 586 c 1
 1823 586 l 1
 1643 271 1274 -41 819 -41 c 0
 426 -41 66 143 66 635 c 0
 66 1405 721 1925 1319 1925 c 0
 1716 1925 2028 1798 2028 1503 c 0
 2028 921 1094 860 639 860 c 1
 639 885 l 1
 942 885 1491 1016 1491 1581 c 0
 1491 1733 1463 1905 1348 1905 c 0
 1065 1905 696 1106 696 475 c 0
EndSplineSet
EndChar

StartChar: f
Encoding: 102 102 43
GlifName: f
Width: 1703
VWidth: 4730
Flags: HMW
LayerCount: 2
Fore
SplineSet
287 1884 m 1
 1782 1884 l 1
 1782 1860 l 1
 287 1860 l 1
 287 1884 l 1
2286 2785 m 1
 2245 2924 2064 3084 1810 3084 c 0
 1523 3084 1339 2712 1249 2212 c 2
 844 -49 l 2
 729 -704 282 -1065 -250 -1065 c 0
 -643 -1065 -844 -811 -844 -598 c 0
 -844 -389 -716 -262 -532 -262 c 0
 -368 -262 -197 -360 -197 -565 c 0
 -197 -770 -348 -885 -524 -885 c 0
 -639 -885 -737 -819 -770 -737 c 1
 -729 -876 -549 -1036 -295 -1036 c 0
 -8 -1036 180 -664 266 -164 c 2
 668 2097 l 2
 783 2752 1233 3113 1765 3113 c 0
 2158 3113 2359 2859 2359 2646 c 0
 2359 2437 2232 2310 2048 2310 c 0
 1884 2310 1712 2408 1712 2613 c 0
 1712 2818 1864 2933 2040 2933 c 0
 2155 2933 2253 2863 2286 2785 c 1
EndSplineSet
EndChar

StartChar: g
Encoding: 103 103 44
GlifName: g
Width: 2588
VWidth: 4730
Flags: HMW
LayerCount: 2
Fore
SplineSet
586 -115 m 1
 443 -160 319 -345 319 -578 c 0
 319 -840 451 -1040 803 -1040 c 0
 1168 -1040 1712 -868 1712 -438 c 0
 1712 -217 1581 -139 1356 -139 c 0
 1270 -139 901 -139 811 -139 c 0
 442 -139 147 -33 147 221 c 0
 147 553 656 676 1004 676 c 1
 1004 664 l 1
 869 664 537 623 537 467 c 0
 537 377 717 344 942 344 c 0
 1085 344 1261 348 1376 348 c 0
 1745 348 1929 180 1929 -172 c 0
 1929 -750 1339 -1065 786 -1065 c 0
 303 -1065 -180 -959 -180 -627 c 0
 -180 -234 373 -115 557 -115 c 2
 586 -115 l 1
2671 1569 m 0
 2671 1344 2531 1266 2408 1266 c 0
 2285 1266 2154 1348 2154 1524 c 0
 2154 1659 2270 1765 2417 1765 c 0
 2536 1765 2622 1680 2638 1606 c 1
 2613 1794 2486 1880 2318 1880 c 0
 2134 1880 1900 1749 1712 1409 c 1
 1692 1421 l 1
 1876 1773 2134 1905 2318 1905 c 0
 2560 1905 2671 1741 2671 1569 c 0
999 680 m 0
 1241 680 1425 1253 1425 1597 c 0
 1425 1736 1385 1901 1266 1901 c 0
 1024 1901 840 1327 840 983 c 0
 840 844 880 680 999 680 c 0
991 655 m 0
 598 655 279 798 279 1167 c 0
 279 1618 762 1925 1278 1925 c 0
 1671 1925 1982 1782 1982 1413 c 0
 1982 962 1507 655 991 655 c 0
EndSplineSet
EndChar

StartChar: h
Encoding: 104 104 45
GlifName: h
Width: 2543
VWidth: 4730
Flags: HMW
LayerCount: 2
Fore
SplineSet
1548 1253 m 2
 1654 1564 1687 1855 1540 1855 c 0
 1249 1855 958 1336 811 709 c 1
 795 709 l 1
 959 1340 1192 1925 1675 1925 c 0
 2093 1925 2265 1647 2138 1262 c 2
 1778 176 l 2
 1770 151 1765 122 1765 102 c 0
 1765 57 1790 29 1843 29 c 0
 2072 29 2310 303 2441 672 c 1
 2462 668 l 1
 2306 258 2064 -41 1671 -41 c 0
 1397 -41 1249 74 1249 291 c 0
 1249 352 1262 401 1270 438 c 2
 1548 1253 l 2
786 3047 m 1
 508 3047 l 1
 508 3072 l 1
 1368 3072 l 1
 647 0 l 1
 74 0 l 1
 786 3047 l 1
EndSplineSet
EndChar

StartChar: i
Encoding: 105 105 46
GlifName: i
Width: 1519
VWidth: 4730
Flags: HMW
LayerCount: 2
Fore
SplineSet
614 2765 m 0
 614 2962 761 3113 958 3113 c 0
 1155 3113 1311 2962 1311 2765 c 0
 1311 2568 1155 2417 958 2417 c 0
 761 2417 614 2568 614 2765 c 0
1425 668 m 1
 1269 258 983 -41 590 -41 c 0
 336 -41 209 53 209 299 c 0
 209 319 209 364 217 389 c 2
 573 1860 l 1
 262 1860 l 1
 262 1884 l 1
 1147 1884 l 1
 741 205 l 2
 737 180 733 151 733 131 c 0
 733 86 754 49 807 49 c 0
 1020 49 1270 316 1401 676 c 1
 1425 668 l 1
EndSplineSet
EndChar

StartChar: j
Encoding: 106 106 47
GlifName: j
Width: 1228
VWidth: 4730
Flags: HMW
LayerCount: 2
Fore
SplineSet
639 2765 m 0
 639 2962 786 3113 983 3113 c 0
 1180 3113 1335 2962 1335 2765 c 0
 1335 2568 1180 2417 983 2417 c 0
 786 2417 639 2568 639 2765 c 0
-754 -729 m 1
 -705 -885 -520 -1036 -291 -1036 c 0
 98 -1036 73 -410 188 82 c 2
 606 1860 l 1
 221 1860 l 1
 221 1884 l 1
 1171 1884 l 1
 770 -49 l 2
 664 -561 262 -1065 -270 -1065 c 0
 -602 -1065 -836 -811 -836 -598 c 0
 -836 -389 -663 -242 -479 -242 c 0
 -315 -242 -168 -360 -168 -532 c 0
 -168 -725 -328 -860 -516 -860 c 0
 -631 -860 -713 -799 -754 -729 c 1
EndSplineSet
EndChar

StartChar: k
Encoding: 107 107 48
GlifName: k
Width: 2519
VWidth: 4730
Flags: HMW
LayerCount: 2
Fore
SplineSet
2429 668 m 1
 2273 258 2011 -41 1638 -41 c 0
 1384 -41 1229 53 1229 299 c 0
 1229 319 1233 364 1237 389 c 2
 1274 573 l 2
 1323 811 1470 1139 1253 1139 c 0
 1048 1139 979 934 942 778 c 1
 922 778 l 1
 1004 1130 1151 1196 1380 1196 c 0
 1663 1196 1938 1028 1815 496 c 2
 1737 139 l 2
 1737 131 1737 110 1737 102 c 0
 1737 57 1766 37 1819 37 c 0
 2040 37 2285 332 2408 676 c 1
 2429 668 l 1
913 1319 m 1
 942 1303 l 1
 950 1115 1007 1016 1130 1016 c 0
 1294 1016 1377 1221 1483 1483 c 0
 1598 1762 1770 1925 1995 1925 c 0
 2220 1925 2417 1765 2417 1511 c 0
 2417 1306 2282 1184 2118 1184 c 0
 1954 1184 1831 1314 1831 1470 c 0
 1831 1626 1962 1745 2118 1745 c 0
 2249 1745 2343 1671 2376 1581 c 1
 2351 1769 2192 1901 1995 1901 c 0
 1790 1901 1622 1753 1507 1466 c 0
 1396 1187 1306 991 1130 991 c 0
 995 991 913 1106 913 1319 c 1
897 3047 m 1
 532 3047 l 1
 532 3072 l 1
 1475 3072 l 1
 762 0 l 1
 188 0 l 1
 897 3047 l 1
EndSplineSet
EndChar

StartChar: l
Encoding: 108 108 49
GlifName: l
Width: 1462
VWidth: 4730
Flags: HMW
LayerCount: 2
Fore
SplineSet
1384 668 m 1
 1228 258 942 -41 549 -41 c 0
 295 -41 168 53 168 299 c 0
 168 319 172 364 176 389 c 2
 786 3047 l 1
 410 3047 l 1
 410 3072 l 1
 1360 3072 l 1
 700 205 l 2
 696 180 692 151 692 131 c 0
 692 86 713 49 766 49 c 0
 979 49 1229 324 1360 676 c 1
 1384 668 l 1
EndSplineSet
EndChar

StartChar: m
Encoding: 109 109 50
GlifName: m
Width: 3690
VWidth: 4730
Flags: HMW
LayerCount: 2
Fore
SplineSet
2695 1253 m 2
 2801 1564 2830 1839 2683 1839 c 0
 2421 1839 2134 1381 1978 709 c 1
 1958 709 l 1
 2114 1327 2359 1925 2834 1925 c 0
 3252 1925 3412 1647 3285 1262 c 2
 2925 176 l 2
 2917 151 2912 122 2912 102 c 0
 2912 57 2937 25 2990 25 c 0
 3219 25 3457 311 3588 676 c 1
 3609 668 l 1
 3453 258 3211 -41 2818 -41 c 0
 2544 -41 2396 74 2396 291 c 0
 2396 352 2409 401 2417 438 c 2
 2695 1253 l 2
1806 0 m 17
 1233 0 l 1
 1540 1262 l 2
 1618 1586 1679 1839 1532 1839 c 0
 1258 1839 974 1348 827 709 c 1
 807 709 l 1
 963 1332 1205 1925 1688 1925 c 0
 2106 1925 2216 1676 2126 1307 c 2
 1806 0 l 17
532 1860 m 1
 250 1860 l 1
 250 1884 l 1
 1110 1884 l 1
 659 0 l 1
 86 0 l 1
 532 1860 l 1
EndSplineSet
EndChar

StartChar: n
Encoding: 110 110 51
GlifName: n
Width: 2564
VWidth: 4730
Flags: HMW
LayerCount: 2
Fore
SplineSet
524 1860 m 1
 246 1860 l 1
 246 1884 l 1
 1106 1884 l 1
 651 0 l 1
 78 0 l 1
 524 1860 l 1
1552 1253 m 2
 1658 1564 1687 1855 1540 1855 c 0
 1249 1855 971 1336 819 709 c 1
 799 709 l 1
 963 1340 1196 1925 1679 1925 c 0
 2097 1925 2269 1647 2142 1262 c 2
 1782 176 l 2
 1774 151 1769 122 1769 102 c 0
 1769 57 1794 29 1847 29 c 0
 2076 29 2318 303 2449 672 c 1
 2474 668 l 1
 2318 258 2068 -41 1675 -41 c 0
 1401 -41 1253 74 1253 291 c 0
 1253 352 1262 397 1274 438 c 2
 1552 1253 l 2
EndSplineSet
EndChar

StartChar: o
Encoding: 111 111 52
GlifName: o
Width: 2265
VWidth: 4730
Flags: HMW
LayerCount: 2
Fore
SplineSet
881 -41 m 0
 488 -41 66 164 66 676 c 0
 66 1454 688 1925 1327 1925 c 0
 1720 1925 2142 1720 2142 1208 c 0
 2142 430 1520 -41 881 -41 c 0
881 -16 m 0
 1287 -16 1552 946 1552 1454 c 0
 1552 1733 1487 1901 1327 1901 c 0
 921 1901 655 938 655 430 c 0
 655 151 721 -16 881 -16 c 0
EndSplineSet
EndChar

StartChar: p
Encoding: 112 112 53
GlifName: p
Width: 2461
VWidth: 4730
Flags: HMW
LayerCount: 2
Fore
SplineSet
872 594 m 0
 872 336 946 106 1106 106 c 0
 1389 106 1729 815 1729 1364 c 0
 1729 1618 1646 1786 1499 1786 c 0
 1147 1786 872 1036 872 594 c 0
852 594 m 0
 852 1036 1126 1925 1704 1925 c 0
 1987 1925 2359 1757 2359 1225 c 0
 2359 406 1712 -41 1290 -41 c 0
 979 -41 852 217 852 594 c 0
-385 -999 m 1
 741 -999 l 1
 741 -1024 l 1
 -385 -1024 l 1
 -385 -999 l 1
549 1860 m 1
 258 1860 l 1
 258 1884 l 1
 1126 1884 l 1
 954 1155 l 1
 893 926 l 1
 868 754 l 1
 455 -1024 l 1
 -119 -1024 l 1
 549 1860 l 1
EndSplineSet
EndChar

StartChar: q
Encoding: 113 113 54
GlifName: q
Width: 2400
VWidth: 4730
Flags: HMW
LayerCount: 2
Fore
SplineSet
1864 -999 m 1
 1864 -1024 l 1
 778 -1024 l 1
 778 -999 l 1
 1864 -999 l 1
1577 -1024 m 17
 1044 -1024 l 1
 1450 696 l 1
 1466 737 1528 983 1540 1040 c 1
 1556 1221 l 1
 1708 1843 l 1
 2257 1925 l 1
 1577 -1024 l 17
1548 1286 m 0
 1548 1544 1475 1778 1315 1778 c 0
 1032 1778 696 1065 696 516 c 0
 696 262 775 94 922 94 c 0
 1274 94 1548 844 1548 1286 c 0
1569 1286 m 0
 1569 844 1295 -41 717 -41 c 0
 434 -41 66 123 66 655 c 0
 66 1474 708 1925 1130 1925 c 0
 1441 1925 1569 1663 1569 1286 c 0
EndSplineSet
EndChar

StartChar: r
Encoding: 114 114 55
GlifName: r
Width: 1953
VWidth: 4730
Flags: HMW
LayerCount: 2
Fore
SplineSet
2056 1491 m 0
 2056 1303 1933 1139 1716 1139 c 0
 1519 1139 1372 1261 1372 1466 c 0
 1372 1650 1515 1802 1716 1802 c 0
 1847 1802 1933 1724 1974 1638 c 1
 1925 1802 1757 1901 1593 1901 c 0
 1134 1901 938 1110 840 709 c 1
 819 709 l 1
 921 1160 1118 1925 1597 1925 c 0
 1826 1925 2056 1753 2056 1491 c 0
553 1860 m 1
 250 1860 l 1
 250 1884 l 1
 1110 1884 l 1
 680 0 l 1
 106 0 l 1
 553 1860 l 1
EndSplineSet
EndChar

StartChar: s
Encoding: 115 115 56
GlifName: s
Width: 1855
VWidth: 4730
Flags: HMW
LayerCount: 2
Fore
SplineSet
1610 1602 m 1
 1565 1758 1352 1896 1024 1896 c 0
 782 1896 647 1765 647 1618 c 0
 647 1217 1569 1168 1569 623 c 0
 1569 238 1180 -49 721 -49 c 0
 193 -49 -16 226 -16 451 c 0
 -16 639 131 745 274 745 c 0
 397 745 553 659 553 475 c 0
 553 311 418 209 279 209 c 0
 148 209 49 290 33 360 c 1
 74 172 279 -25 721 -25 c 0
 1008 -25 1188 127 1188 307 c 0
 1188 676 254 700 254 1298 c 0
 254 1704 664 1921 1020 1921 c 0
 1430 1921 1671 1720 1671 1507 c 0
 1671 1339 1560 1241 1417 1241 c 0
 1294 1241 1151 1327 1151 1491 c 0
 1151 1634 1266 1737 1397 1737 c 0
 1512 1737 1573 1684 1610 1602 c 1
EndSplineSet
EndChar

StartChar: t
Encoding: 116 116 57
GlifName: t
Width: 1499
VWidth: 4730
Flags: HMW
LayerCount: 2
Fore
SplineSet
188 1884 m 1
 1499 1884 l 1
 1499 1860 l 1
 188 1860 l 1
 188 1884 l 1
1409 668 m 1
 1253 258 975 -41 582 -41 c 0
 328 -41 188 53 188 299 c 0
 188 319 193 364 201 389 c 2
 639 2294 l 1
 1204 2294 l 1
 729 205 l 2
 725 180 721 151 721 131 c 0
 721 86 742 53 795 53 c 0
 1037 53 1274 357 1393 676 c 1
 1409 668 l 1
EndSplineSet
EndChar

StartChar: u
Encoding: 117 117 58
GlifName: u
Width: 2686
VWidth: 4730
Flags: HMW
LayerCount: 2
Fore
SplineSet
1122 1884 m 1
 819 590 l 2
 745 266 729 57 885 57 c 0
 1131 57 1425 529 1581 1176 c 1
 1597 1176 l 1
 1421 525 1180 -41 705 -41 c 0
 308 -41 180 242 254 578 c 2
 541 1860 l 1
 254 1860 l 1
 254 1884 l 1
 1122 1884 l 1
2605 668 m 1
 2449 258 2171 -41 1778 -41 c 0
 1524 -41 1389 53 1389 299 c 0
 1389 319 1393 364 1397 389 c 2
 1737 1884 l 1
 2310 1884 l 1
 1921 205 l 2
 1917 180 1913 151 1913 131 c 0
 1913 86 1934 53 1987 53 c 0
 2225 53 2470 352 2589 676 c 1
 2605 668 l 1
EndSplineSet
EndChar

StartChar: v
Encoding: 118 118 59
GlifName: v
Width: 2465
VWidth: 4730
Flags: HMW
LayerCount: 2
Fore
SplineSet
1106 549 m 2
 1053 225 1004 20 1233 20 c 0
 1659 20 2380 729 2380 1409 c 0
 2380 1499 2367 1556 2351 1589 c 1
 2343 1454 2195 1249 1978 1249 c 0
 1749 1249 1630 1421 1630 1585 c 0
 1630 1769 1778 1921 1991 1921 c 0
 2270 1921 2404 1679 2404 1409 c 0
 2404 725 1684 -41 1098 -41 c 0
 639 -41 462 221 532 598 c 2
 737 1679 l 2
 741 1704 745 1733 745 1753 c 0
 745 1798 712 1831 655 1831 c 0
 397 1831 193 1511 70 1208 c 1
 45 1217 l 1
 221 1627 443 1925 877 1925 c 0
 1151 1925 1262 1811 1262 1614 c 0
 1262 1553 1257 1515 1249 1466 c 2
 1106 549 l 2
EndSplineSet
Substitution2: "'ss04' Style Set 4 lookup 5-1" v.alt
EndChar

StartChar: w
Encoding: 119 119 60
GlifName: w
Width: 3686
VWidth: 4730
Flags: HMW
LayerCount: 2
Fore
SplineSet
950 606 m 2
 844 291 852 37 1040 37 c 0
 1368 37 1655 562 1802 1176 c 1
 1823 1176 l 1
 1667 586 1433 -41 872 -41 c 0
 434 -41 250 213 373 578 c 2
 737 1679 l 2
 745 1704 750 1733 750 1753 c 0
 750 1798 721 1831 664 1831 c 0
 410 1831 213 1548 70 1208 c 1
 45 1217 l 1
 221 1627 443 1925 877 1925 c 0
 1131 1925 1270 1823 1270 1606 c 0
 1270 1545 1253 1495 1245 1466 c 2
 950 606 l 2
1970 1884 m 1
 2544 1884 l 1
 2273 741 l 2
 2191 397 2207 16 2531 16 c 0
 3154 16 3600 926 3600 1409 c 0
 3600 1483 3588 1540 3580 1565 c 1
 3564 1389 3416 1249 3195 1249 c 0
 2970 1249 2847 1421 2847 1585 c 0
 2847 1769 3006 1921 3211 1921 c 0
 3449 1921 3625 1720 3625 1409 c 0
 3625 958 3216 -41 2417 -41 c 0
 2032 -41 1573 139 1720 844 c 1
 1970 1884 l 1
EndSplineSet
EndChar

StartChar: x
Encoding: 120 120 61
GlifName: x
Width: 2506
VWidth: 4730
Flags: HMW
LayerCount: 2
Fore
SplineSet
1319 991 m 1
 1565 1392 1769 1925 2154 1925 c 0
 2445 1925 2572 1704 2572 1532 c 0
 2572 1344 2450 1204 2253 1204 c 0
 2048 1204 1942 1377 1942 1520 c 0
 1942 1672 2073 1827 2257 1827 c 0
 2368 1827 2458 1757 2499 1663 c 1
 2458 1798 2339 1901 2163 1901 c 0
 1794 1901 1593 1393 1343 983 c 1
 1319 991 l 1
1245 1016 m 1
 954 533 721 -41 336 -41 c 0
 45 -41 -78 180 -78 352 c 0
 -78 540 45 680 242 680 c 0
 447 680 549 508 549 365 c 0
 549 213 421 57 233 57 c 0
 106 57 21 148 -8 246 c 1
 33 82 160 -16 336 -16 c 0
 701 -16 942 553 1225 1024 c 1
 1245 1016 l 1
2318 446 m 1
 2187 98 1983 -41 1688 -41 c 0
 1373 -41 1241 102 1159 340 c 0
 1044 684 847 1442 741 1737 c 0
 725 1782 696 1835 618 1835 c 0
 491 1835 360 1671 262 1417 c 1
 238 1430 l 1
 369 1778 549 1933 885 1933 c 0
 1200 1933 1315 1790 1397 1552 c 0
 1520 1192 1680 561 1823 164 c 0
 1839 119 1889 61 1950 61 c 0
 2061 61 2212 213 2302 459 c 1
 2318 446 l 1
EndSplineSet
EndChar

StartChar: y
Encoding: 121 121 62
GlifName: y
Width: 2584
VWidth: 4730
Flags: HMW
LayerCount: 2
Fore
SplineSet
1409 -410 m 1
 1065 176 754 1425 643 1720 c 0
 627 1765 598 1823 524 1823 c 0
 405 1823 238 1647 156 1409 c 1
 135 1421 l 1
 270 1790 508 1925 803 1925 c 0
 1082 1925 1220 1778 1294 1540 c 0
 1409 1171 1553 491 1827 90 c 1
 1757 -4 1491 -336 1409 -410 c 1
455 -1065 m 0
 95 -1065 -82 -803 -82 -557 c 0
 -82 -360 57 -184 254 -184 c 0
 418 -184 565 -290 565 -487 c 0
 565 -663 434 -791 262 -791 c 0
 98 -791 -16 -701 -49 -586 c 1
 -45 -799 119 -1040 455 -1040 c 0
 1209 -1040 2507 959 2507 1475 c 0
 2507 1541 2486 1597 2466 1630 c 1
 2470 1409 2314 1294 2142 1294 c 0
 1921 1294 1802 1467 1802 1610 c 0
 1802 1774 1933 1925 2146 1925 c 0
 2416 1925 2531 1688 2531 1479 c 0
 2531 947 1225 -1065 455 -1065 c 0
EndSplineSet
EndChar

StartChar: z
Encoding: 122 122 63
GlifName: z
Width: 1859
VWidth: 4730
Flags: HMW
LayerCount: 2
Fore
SplineSet
106 963 m 1
 328 1905 l 1
 549 1782 794 1745 1044 1745 c 0
 1282 1745 1642 1778 1794 1901 c 1
 1815 1876 l 1
 1450 1593 1037 1229 713 1229 c 0
 533 1229 339 1290 233 1380 c 1
 131 963 l 1
 106 963 l 1
-49 12 m 1
 -123 -20 l 1
 1769 1868 l 1
 1815 1876 l 1
 -49 12 l 1
1798 713 m 1
 1757 590 1659 496 1503 496 c 0
 1364 496 1221 618 1221 782 c 0
 1221 966 1373 1073 1516 1073 c 0
 1680 1073 1823 954 1823 745 c 0
 1823 499 1557 -41 1098 -41 c 0
 807 -41 671 160 401 160 c 0
 204 160 33 90 -98 -41 c 1
 -119 -20 l 1
 192 226 565 553 852 553 c 0
 1131 553 1159 315 1466 315 c 0
 1671 315 1782 516 1798 713 c 1
EndSplineSet
EndChar

StartChar: comma
Encoding: 44 44 65
GlifName: comma
Width: 1126
Flags: HMW
LayerCount: 2
Fore
SplineSet
102 319 m 0
 102 516 283 688 500 688 c 0
 721 688 901 537 901 238 c 0
 901 -270 353 -639 -139 -639 c 1
 -139 -614 l 1
 303 -614 876 -274 868 254 c 1
 835 90 672 -41 467 -41 c 0
 234 -41 102 131 102 319 c 0
EndSplineSet
EndChar

StartChar: exclam
Encoding: 33 33 67
GlifName: exclam
Width: 1552
Flags: HMW
LayerCount: 2
Fore
SplineSet
1589 2761 m 0
 1548 2282 1040 1692 868 1057 c 1
 844 1057 l 1
 967 1671 840 2060 840 2576 c 0
 840 2867 1020 3105 1262 3105 c 0
 1467 3105 1605 2949 1589 2761 c 0
315 328 m 0
 315 533 475 692 680 692 c 0
 885 692 1049 533 1049 328 c 0
 1049 123 885 -41 680 -41 c 0
 475 -41 315 123 315 328 c 0
EndSplineSet
EndChar

StartChar: quotesingle
Encoding: 39 39 70
GlifName: quotesingle
Width: 1052
Flags: HMW
LayerCount: 2
Fore
SplineSet
1221 2720 m 0
 1143 2413 836 2265 713 1855 c 1
 688 1855 l 1
 794 2244 610 2388 565 2695 c 24
 561 2724 565 2756 565 2781 c 0
 565 2982 721 3113 922 3113 c 0
 1102 3113 1237 2982 1237 2822 c 0
 1237 2789 1229 2749 1221 2720 c 0
EndSplineSet
EndChar

StartChar: question
Encoding: 63 63 75
GlifName: question
Width: 2396
Flags: HMW
LayerCount: 2
Fore
SplineSet
1212 1434 m 1
 1114 999 l 1
 1090 999 l 1
 1188 1454 l 1
 1667 1581 1942 2117 1942 2580 c 0
 1942 2842 1864 3084 1581 3084 c 0
 1122 3084 766 2757 717 2507 c 1
 758 2581 856 2662 991 2662 c 0
 1151 2662 1307 2539 1307 2355 c 0
 1307 2150 1135 2023 971 2023 c 0
 766 2023 655 2171 655 2380 c 0
 655 2716 1081 3113 1622 3113 c 0
 2077 3113 2580 2929 2580 2437 c 0
 2580 1786 1847 1467 1212 1434 c 1
EndSplineSet
Refer: 1 46 N 1 0 0 1 610 0 2
EndChar

StartChar: parenleft
Encoding: 40 40 76
GlifName: parenleft
Width: 1527
Flags: HMW
LayerCount: 2
Fore
SplineSet
1155 -680 m 1
 1147 -696 l 1
 684 -491 344 49 344 758 c 0
 344 1958 1232 2949 2023 3277 c 1
 2040 3260 l 1
 1409 2850 897 1282 897 332 c 0
 897 -188 971 -475 1155 -680 c 1
EndSplineSet
EndChar

StartChar: asterisk
Encoding: 42 42 78
GlifName: asterisk
Width: 2600
VWidth: 4730
Flags: HMW
LayerCount: 2
Fore
SplineSet
1106 2703 m 0
 1360 2506 1196 2200 1565 1995 c 1
 1548 1974 l 1
 1159 2199 992 2003 705 2126 c 0
 504 2216 455 2437 553 2609 c 0
 659 2789 918 2834 1106 2703 c 0
586 1823 m 0
 881 1913 1159 1770 1548 1995 c 1
 1561 1974 l 1
 1172 1749 1098 1491 848 1286 c 0
 664 1143 442 1151 336 1323 c 0
 230 1499 348 1757 586 1823 c 0
1073 1135 m 0
 1163 1446 1483 1577 1544 1987 c 1
 1569 1987 l 1
 1487 1495 1720 1421 1720 1114 c 0
 1720 901 1548 729 1343 729 c 0
 1159 729 999 873 1073 1135 c 0
2007 1278 m 0
 1753 1475 1917 1769 1548 1974 c 1
 1565 1995 l 1
 1954 1770 2121 1970 2408 1847 c 0
 2609 1757 2654 1536 2556 1364 c 0
 2450 1184 2191 1147 2007 1278 c 0
2523 2150 m 0
 2228 2060 1950 2199 1561 1974 c 1
 1548 1995 l 1
 1937 2220 2011 2482 2261 2687 c 0
 2445 2830 2667 2822 2773 2650 c 0
 2879 2474 2761 2216 2523 2150 c 0
2040 2839 m 0
 1966 2528 1630 2397 1569 1987 c 1
 1544 1987 l 1
 1626 2479 1393 2552 1393 2859 c 0
 1393 3072 1560 3244 1765 3244 c 0
 1949 3244 2097 3105 2040 2839 c 0
EndSplineSet
EndChar

StartChar: at
Encoding: 64 64 79
GlifName: at
Width: 4136
VWidth: 4730
Flags: HMW
LayerCount: 2
Fore
SplineSet
2384 1462 m 0
 2384 831 2089 287 1618 287 c 0
 1270 287 999 516 999 942 c 0
 999 1556 1450 2167 1950 2167 c 0
 2319 2167 2384 1798 2384 1462 c 0
2359 1417 m 0
 2359 1589 2351 2015 2138 2015 c 0
 1917 2015 1659 1458 1659 950 c 0
 1659 676 1721 442 1868 442 c 0
 2101 442 2359 909 2359 1417 c 0
2273 860 m 2
 2568 2130 l 1
 3183 2130 l 1
 2884 836 l 2
 2855 709 2732 352 2982 352 c 0
 3465 352 3887 950 3887 1642 c 0
 3887 2379 3416 3211 2392 3211 c 0
 1212 3211 250 2134 250 864 c 0
 250 -406 983 -852 1716 -852 c 0
 2384 -852 2847 -647 3195 -246 c 1
 3215 -262 l 1
 2871 -663 2384 -877 1716 -877 c 0
 966 -877 225 -422 225 864 c 0
 225 2146 1196 3236 2396 3236 c 0
 3432 3236 3912 2392 3912 1642 c 0
 3912 966 3531 279 2769 279 c 0
 2282 279 2216 606 2273 860 c 2
EndSplineSet
EndChar

StartChar: dollar
Encoding: 36 36 80
GlifName: dollar
Width: 2457
Flags: HMW
LayerCount: 2
Fore
SplineSet
1548 3400 m 1
 1581 3400 l 1
 721 -328 l 1
 688 -328 l 1
 1548 3400 l 1
1884 3400 m 1
 1909 3400 l 1
 1049 -328 l 1
 1024 -328 l 1
 1884 3400 l 1
1024 2556 m 0
 1024 1843 2314 2089 2314 1004 c 0
 2314 328 1663 -61 1085 -61 c 0
 528 -61 123 295 123 664 c 0
 123 873 250 1053 471 1053 c 0
 635 1053 795 930 795 729 c 0
 795 504 631 393 451 393 c 0
 304 393 205 483 172 557 c 1
 229 254 589 -37 1085 -37 c 0
 1519 -37 1782 290 1782 614 c 0
 1782 1413 512 1065 512 2109 c 0
 512 2703 1131 3113 1647 3113 c 0
 2089 3113 2499 2818 2499 2466 c 0
 2499 2278 2375 2097 2154 2097 c 0
 1990 2097 1827 2212 1827 2425 c 0
 1827 2630 2011 2740 2171 2740 c 0
 2318 2740 2408 2646 2441 2580 c 1
 2392 2834 2068 3080 1667 3080 c 0
 1233 3080 1024 2818 1024 2556 c 0
EndSplineSet
EndChar

StartChar: numbersign
Encoding: 35 35 81
GlifName: numbersign
Width: 2580
Flags: HMW
LayerCount: 2
Fore
SplineSet
270 1036 m 1
 2482 1036 l 1
 2482 1012 l 1
 270 1012 l 1
 270 1036 l 1
475 2122 m 1
 2687 2122 l 1
 2687 2097 l 1
 475 2097 l 1
 475 2122 l 1
2245 3088 m 1
 2269 3092 l 1
 1552 -20 l 1
 1528 -25 l 1
 2245 3088 l 1
1425 3092 m 1
 1450 3092 l 1
 733 -20 l 1
 709 -20 l 1
 1425 3092 l 1
EndSplineSet
EndChar

StartChar: slash
Encoding: 47 47 82
GlifName: slash
Width: 2129
Flags: HMW
LayerCount: 2
Fore
SplineSet
2511 3195 m 1
 2540 3195 l 1
 -94 -614 l 1
 -123 -614 l 1
 2511 3195 l 1
EndSplineSet
EndChar

StartChar: percent
Encoding: 37 37 83
GlifName: percent
Width: 4096
Flags: HMW
LayerCount: 2
Fore
SplineSet
2990 -41 m 0
 2568 -41 2273 151 2273 573 c 0
 2273 1241 2773 1761 3359 1761 c 0
 3781 1761 4076 1569 4076 1147 c 0
 4076 479 3576 -41 2990 -41 c 0
3379 1737 m 0
 3137 1737 2826 766 2826 328 c 0
 2826 140 2872 -16 2970 -16 c 0
 3212 -16 3514 938 3514 1376 c 0
 3514 1564 3477 1737 3379 1737 c 0
3633 3072 m 1
 3666 3072 l 1
 823 0 l 1
 791 0 l 1
 3633 3072 l 1
1126 1311 m 0
 704 1311 410 1503 410 1925 c 0
 410 2593 909 3113 1495 3113 c 0
 1917 3113 2212 2921 2212 2499 c 0
 2212 1831 1712 1311 1126 1311 c 0
1516 3088 m 0
 1274 3088 963 2117 963 1679 c 0
 963 1491 1008 1335 1106 1335 c 0
 1348 1335 1647 2319 1647 2757 c 0
 1647 2945 1614 3088 1516 3088 c 0
EndSplineSet
EndChar

StartChar: hyphen
Encoding: 45 45 85
GlifName: hyphen
Width: 1474
Flags: HMW
LayerCount: 2
Fore
SplineSet
340 1139 m 1
 1323 1139 l 1
 1323 1114 l 1
 340 1114 l 1
 340 1139 l 1
EndSplineSet
EndChar

StartChar: plus
Encoding: 43 43 87
GlifName: plus
Width: 2170
Flags: HMW
LayerCount: 2
Fore
SplineSet
1012 451 m 1
 1401 2130 l 1
 1425 2130 l 1
 1036 451 l 1
 1012 451 l 1
381 1307 m 1
 2060 1307 l 1
 2060 1282 l 1
 381 1282 l 1
 381 1307 l 1
EndSplineSet
EndChar

StartChar: less
Encoding: 60 60 89
GlifName: less
Width: 2293
Flags: HMW
LayerCount: 2
Fore
SplineSet
451 1577 m 1
 451 1602 l 1
 2417 2458 l 1
 2417 2433 l 1
 451 1577 l 1
451 1573 m 1
 451 1597 l 1
 2048 741 l 1
 2048 717 l 1
 451 1573 l 1
EndSplineSet
EndChar

StartChar: backslash
Encoding: 92 92 91
GlifName: backslash
Width: 2129
Flags: HMW
LayerCount: 2
Fore
SplineSet
762 3195 m 1
 1679 -614 l 1
 1655 -614 l 1
 737 3195 l 1
 762 3195 l 1
EndSplineSet
EndChar

StartChar: bracketleft
Encoding: 91 91 92
GlifName: bracketleft
Width: 1515
Flags: HMW
LayerCount: 2
Fore
SplineSet
819 3195 m 1
 1946 3195 l 1
 1946 3170 l 1
 1384 3170 l 1
 541 -590 l 1
 1085 -590 l 1
 1085 -614 l 1
 -41 -614 l 1
 819 3195 l 1
EndSplineSet
EndChar

StartChar: braceleft
Encoding: 123 123 93
GlifName: braceleft
Width: 1318
VWidth: 4730
Flags: HMW
LayerCount: 2
Fore
SplineSet
1769 3195 m 1
 1769 3142 l 1
 1454 3142 1221 2875 1221 2523 c 0
 1221 2294 1266 2175 1266 1888 c 0
 1266 1487 713 1319 348 1278 c 1
 348 1319 l 1
 471 1360 717 1458 717 1667 c 0
 717 1905 623 1983 623 2339 c 0
 623 2867 1093 3195 1769 3195 c 1
909 -614 m 1
 315 -614 20 -487 20 -102 c 0
 20 398 553 746 553 1004 c 0
 553 1172 471 1221 348 1262 c 1
 348 1303 l 1
 713 1262 991 1179 991 860 c 0
 991 450 606 123 606 -188 c 0
 606 -381 655 -561 909 -561 c 1
 909 -614 l 1
EndSplineSet
EndChar

StartChar: bar
Encoding: 124 124 96
GlifName: bar
Width: 942
VWidth: 4730
Flags: HMW
LayerCount: 2
Fore
SplineSet
1036 3195 m 1
 1061 3195 l 1
 78 -1024 l 1
 53 -1024 l 1
 1036 3195 l 1
EndSplineSet
EndChar

StartChar: cent
Encoding: 162 162 98
GlifName: cent
Width: 2027
VWidth: 4730
Flags: HMW
LayerCount: 2
Fore
SplineSet
1438 2273 m 1
 741 -348 l 1
 721 -348 l 1
 1417 2273 l 1
 1438 2273 l 1
EndSplineSet
Refer: 40 99 N 1 0 0 1 0 0 2
EndChar

StartChar: sterling
Encoding: 163 163 99
GlifName: sterling
Width: 2596
VWidth: 4730
Flags: HMW
LayerCount: 2
Fore
SplineSet
2630 889 m 1
 2548 279 2175 -123 1692 -123 c 0
 1131 -123 831 123 573 123 c 0
 389 123 226 41 160 -82 c 1
 143 -82 l 1
 286 303 705 643 1102 643 c 0
 1508 643 1586 504 1946 504 c 0
 2253 504 2523 553 2605 889 c 1
 2630 889 l 1
2314 1659 m 1
 2314 1634 l 1
 266 1634 l 1
 266 1659 l 1
 2314 1659 l 1
729 2109 m 0
 729 2723 1364 3113 2105 3113 c 0
 2707 3113 2966 2777 2966 2400 c 0
 2966 2171 2797 2023 2613 2023 c 0
 2429 2023 2257 2151 2257 2376 c 0
 2257 2581 2433 2703 2613 2703 c 0
 2789 2703 2916 2577 2941 2466 c 1
 2921 2802 2642 3076 2212 3076 c 0
 1725 3076 1470 2617 1470 2314 c 0
 1470 2052 1556 1925 1556 1597 c 0
 1556 778 123 676 156 -82 c 1
 131 -82 l 1
 74 487 856 787 856 1274 c 0
 856 1516 729 1761 729 2109 c 0
EndSplineSet
EndChar

StartChar: section
Encoding: 167 167 101
GlifName: section
Width: 1941
VWidth: 4730
Flags: HMW
LayerCount: 2
Fore
SplineSet
926 2634 m 0
 926 2183 1937 2285 1937 1675 c 0
 1937 1356 1573 1200 1360 1061 c 1
 1343 1065 l 1
 1474 1155 1573 1245 1573 1409 c 0
 1573 1835 573 1671 573 2376 c 0
 573 2802 1036 3113 1466 3113 c 0
 1867 3113 2122 2855 2122 2585 c 0
 2122 2335 1994 2212 1810 2212 c 0
 1646 2212 1528 2315 1528 2503 c 0
 1528 2655 1663 2769 1819 2769 c 0
 1975 2769 2060 2679 2093 2626 c 1
 2073 2835 1876 3088 1466 3088 c 0
 1167 3088 926 2888 926 2634 c 0
1720 725 m 0
 1720 299 1249 -41 737 -41 c 0
 377 -41 -16 131 -16 524 c 0
 -16 712 123 877 328 877 c 0
 492 877 614 782 614 614 c 0
 614 442 479 319 303 319 c 0
 156 319 45 402 8 500 c 1
 33 140 397 -16 737 -16 c 0
 1159 -16 1356 254 1356 438 c 0
 1356 884 283 786 283 1372 c 0
 283 1667 626 1942 827 2028 c 1
 852 2028 l 1
 782 1983 688 1888 688 1724 c 0
 688 1257 1720 1389 1720 725 c 0
EndSplineSet
EndChar

StartChar: brokenbar
Encoding: 166 166 102
GlifName: brokenbar
Width: 901
VWidth: 4730
Flags: HMW
LayerCount: 2
Fore
SplineSet
434 680 m 1
 459 680 l 1
 66 -1024 l 1
 41 -1024 l 1
 434 680 l 1
1016 3195 m 1
 1040 3195 l 1
 688 1675 l 1
 664 1675 l 1
 1016 3195 l 1
EndSplineSet
EndChar

StartChar: asciitilde
Encoding: 126 126 104
GlifName: asciitilde
Width: 2818
VWidth: 4730
Flags: HMW
LayerCount: 2
Fore
SplineSet
1102 1729 m 0
 869 1729 742 1638 668 1405 c 1
 614 1405 l 1
 716 1876 921 2150 1286 2150 c 0
 1737 2150 1778 1765 2167 1765 c 0
 2441 1765 2568 1856 2642 2089 c 1
 2695 2089 l 1
 2593 1618 2388 1343 2023 1343 c 0
 1523 1343 1479 1729 1102 1729 c 0
EndSplineSet
EndChar

StartChar: copyright
Encoding: 169 169 105
GlifName: copyright
Width: 3563
Flags: HMW
LayerCount: 2
Fore
SplineSet
348 1249 m 0
 348 2203 1258 3113 2212 3113 c 0
 3003 3113 3584 2614 3584 1823 c 0
 3584 869 2674 -41 1720 -41 c 0
 929 -41 348 458 348 1249 c 0
373 1249 m 0
 373 471 942 -16 1720 -16 c 0
 2658 -16 3559 881 3559 1823 c 0
 3559 2601 2990 3088 2212 3088 c 0
 1274 3088 373 2191 373 1249 c 0
EndSplineSet
Refer: 14 67 N 0.6 0 0 0.6 909 614 2
EndChar

StartChar: registered
Encoding: 174 174 106
GlifName: registered
Width: 3563
Flags: HMW
LayerCount: 2
Fore
SplineSet
348 1249 m 0
 348 2203 1258 3113 2212 3113 c 0
 3003 3113 3584 2614 3584 1823 c 0
 3584 869 2674 -41 1720 -41 c 0
 929 -41 348 458 348 1249 c 0
373 1249 m 0
 373 471 942 -16 1720 -16 c 0
 2658 -16 3559 881 3559 1823 c 0
 3559 2601 2990 3088 2212 3088 c 0
 1274 3088 373 2191 373 1249 c 0
EndSplineSet
Refer: 29 82 N 0.6 0 0 0.6 995 606 2
EndChar

StartChar: logicalnot
Encoding: 172 172 107
GlifName: logicalnot
Width: 1990
Flags: HMW
LayerCount: 2
Fore
SplineSet
2085 2494 m 1
 614 2494 l 1
 614 2519 l 1
 2114 2519 l 1
 1929 1692 l 1
 1905 1692 l 1
 2085 2494 l 1
EndSplineSet
EndChar

StartChar: guillemotleft
Encoding: 171 171 108
GlifName: guillemotleft
Width: 2846
Flags: HMW
LayerCount: 2
Fore
SplineSet
2175 1589 m 1
 2613 606 l 1
 2601 594 l 1
 1454 1536 l 1
 1454 1638 l 1
 3052 2580 l 1
 3064 2568 l 1
 2175 1589 l 1
1028 1589 m 1
 1466 606 l 1
 1454 594 l 1
 307 1536 l 1
 307 1638 l 1
 1905 2580 l 1
 1917 2568 l 1
 1028 1589 l 1
EndSplineSet
EndChar

StartChar: mu
Encoding: 181 181 111
GlifName: mu
Width: 2686
VWidth: 4730
Flags: HMW
LayerCount: 2
Fore
SplineSet
57 -373 m 2
 -29 -754 33 -1036 393 -1044 c 1
 492 -1036 l 1
 381 -1007 270 -934 270 -770 c 0
 270 -623 389 -512 524 -512 c 0
 659 -512 786 -622 786 -778 c 0
 786 -938 692 -1065 393 -1065 c 0
 24 -1065 -53 -762 37 -373 c 2
 426 1315 l 1
 451 1315 l 1
 57 -373 l 2
EndSplineSet
Refer: 58 117 N 1 0 0 1 0 0 2
EndChar

StartChar: asciicircum
Encoding: 94 94 113
GlifName: asciicircum
Width: 2232
Flags: HMW
LayerCount: 2
Fore
SplineSet
1671 2961 m 1
 885 2556 l 1
 860 2580 l 1
 1556 3154 l 1
 1823 3154 l 1
 2273 2580 l 1
 2245 2556 l 1
 1671 2961 l 1
EndSplineSet
EndChar

StartChar: degree
Encoding: 176 176 115
GlifName: degree
Width: 1310
Flags: HMW
LayerCount: 2
Fore
SplineSet
795 2785 m 0
 795 3055 1016 3277 1286 3277 c 0
 1556 3277 1778 3055 1778 2785 c 0
 1778 2515 1556 2294 1286 2294 c 0
 1016 2294 795 2515 795 2785 c 0
909 2785 m 0
 909 2568 1069 2408 1286 2408 c 0
 1503 2408 1663 2568 1663 2785 c 0
 1663 3002 1503 3162 1286 3162 c 0
 1069 3162 909 3002 909 2785 c 0
EndSplineSet
EndChar

StartChar: onequarter
Encoding: 188 188 119
GlifName: onequarter
Width: 2625
Flags: HMW
LayerCount: 2
Fore
SplineSet
2585 2662 m 1
 2605 2662 l 1
 -49 -410 l 1
 -70 -410 l 1
 2585 2662 l 1
EndSplineSet
Refer: 6 52 N 0.6 0 0 0.6 983 -422 2
Refer: 3 49 N 0.6 0 0 0.6 418 1458 2
EndChar

StartChar: onehalf
Encoding: 189 189 120
GlifName: onehalf
Width: 2744
Flags: HMW
LayerCount: 2
Fore
SplineSet
2585 2662 m 1
 2605 2662 l 1
 -49 -410 l 1
 -70 -410 l 1
 2585 2662 l 1
EndSplineSet
Refer: 4 50 N 0.6 0 0 0.6 1397 -414 2
Refer: 3 49 N 0.6 0 0 0.6 418 1458 2
EndChar

StartChar: threequarters
Encoding: 190 190 121
GlifName: threequarters
Width: 2871
Flags: HMW
LayerCount: 2
Fore
SplineSet
2830 2662 m 1
 2851 2662 l 1
 197 -410 l 1
 176 -410 l 1
 2830 2662 l 1
EndSplineSet
Refer: 5 51 N 0.6 0 0 0.6 348 1450 2
Refer: 6 52 N 0.6 0 0 0.6 1229 -422 2
EndChar

StartChar: grave
Encoding: 96 96 123
GlifName: grave
Width: 1658
Flags: HMW
LayerCount: 2
Fore
SplineSet
1040 2867 m 2
 901 2851 774 2953 774 3092 c 0
 774 3231 921 3367 1081 3310 c 2
 1991 2982 l 1
 1982 2957 l 1
 1040 2867 l 2
EndSplineSet
EndChar

StartChar: acute
Encoding: 180 180 124
GlifName: acute
Width: 1658
Flags: HMW
LayerCount: 2
Fore
SplineSet
1884 2847 m 2
 942 2937 l 1
 934 2961 l 1
 1843 3289 l 2
 2003 3346 2150 3211 2150 3072 c 0
 2150 2933 2023 2831 1884 2847 c 2
EndSplineSet
EndChar

StartChar: multiply
Encoding: 215 215 127
GlifName: multiply
Width: 2170
Flags: HMW
LayerCount: 2
Fore
SplineSet
1671 688 m 1
 750 1876 l 1
 766 1892 l 1
 1688 705 l 1
 1671 688 l 1
479 709 m 1
 1933 1896 l 1
 1950 1880 l 1
 496 692 l 1
 479 709 l 1
EndSplineSet
EndChar

StartChar: cedilla
Encoding: 184 184 128
GlifName: cedilla
Width: 2252
Flags: HMW
LayerCount: 2
Fore
SplineSet
971 -324 m 1
 1462 168 l 1
 1495 168 l 1
 1004 -324 l 1
 971 -324 l 1
971 -324 m 1
 1147 -160 l 1
 1495 -160 1778 -226 1778 -451 c 0
 1778 -738 1360 -901 885 -901 c 1
 885 -877 l 1
 1127 -877 1307 -745 1307 -532 c 0
 1307 -376 1196 -324 971 -324 c 1
EndSplineSet
EndChar

StartChar: ring
Encoding: 730 730 271
GlifName: ring
Width: 1310
VWidth: 0
Flags: HMW
LayerCount: 2
Fore
SplineSet
729 2785 m 0
 729 2994 897 3154 1147 3154 c 0
 1397 3154 1565 2994 1565 2785 c 0
 1565 2576 1397 2417 1147 2417 c 0
 897 2417 729 2576 729 2785 c 0
967 2638 m 0
 967 2536 995 2441 1106 2441 c 0
 1237 2441 1327 2781 1327 2933 c 0
 1327 3035 1299 3129 1188 3129 c 0
 1057 3129 967 2790 967 2638 c 0
EndSplineSet
EndChar

StartChar: tilde
Encoding: 732 732 272
GlifName: tilde
Width: 1835
VWidth: 0
Flags: HMW
LayerCount: 2
Fore
SplineSet
926 2679 m 0
 795 2679 700 2630 618 2458 c 1
 594 2458 l 1
 676 2806 860 3039 1122 3039 c 0
 1409 3039 1589 2716 1810 2716 c 0
 1941 2716 2036 2765 2118 2937 c 1
 2142 2937 l 1
 2060 2548 1917 2355 1655 2355 c 0
 1340 2355 1176 2679 926 2679 c 0
EndSplineSet
EndChar

StartChar: AE
Encoding: 198 198 274
GlifName: A_E_
Width: 4218
Flags: HMW
LayerCount: 2
Fore
SplineSet
2925 3072 m 1
 4604 3072 l 1
 4407 2232 l 1
 4383 2232 l 1
 4424 2670 4223 3047 3744 3047 c 2
 2925 3047 l 1
 2925 3072 l 1
3084 1577 m 2
 2814 1577 l 1
 2814 1602 l 1
 3084 1602 l 2
 3317 1602 3588 1807 3711 2081 c 1
 3736 2081 l 1
 3506 1077 l 1
 3482 1077 l 1
 3482 1351 3317 1577 3084 1577 c 2
3932 0 m 1
 1638 0 l 1
 1638 25 l 1
 3031 25 l 2
 3592 25 3941 402 4121 922 c 1
 4145 922 l 1
 3932 0 l 1
2699 3072 m 1
 3334 3072 l 1
 2621 0 l 1
 1987 0 l 1
 2699 3072 l 1
1077 1016 m 1
 2273 1016 l 1
 2273 991 l 1
 1077 991 l 1
 1077 1016 l 1
2679 3072 m 1
 2712 3072 l 1
 307 0 l 1
 270 0 l 1
 2679 3072 l 1
-102 25 m 1
 799 25 l 1
 799 0 l 1
 -102 0 l 1
 -102 25 l 1
EndSplineSet
EndChar

StartChar: ae
Encoding: 230 230 277
GlifName: ae
Width: 3432
VWidth: 4730
Flags: HMW
LayerCount: 2
Fore
SplineSet
1122 1040 m 2
 1466 1040 l 1
 1466 1016 l 1
 1245 1016 l 2
 954 1016 680 696 680 319 c 0
 680 106 758 -8 860 -8 c 0
 1073 -8 1253 340 1343 741 c 2
 1458 1249 l 2
 1515 1511 1507 1892 1200 1892 c 0
 995 1892 754 1815 639 1688 c 1
 885 1811 1122 1700 1122 1507 c 0
 1122 1323 962 1192 778 1192 c 0
 573 1192 463 1290 463 1458 c 0
 463 1712 827 1917 1241 1917 c 0
 1773 1917 1995 1683 1929 1249 c 1
 1774 741 l 1
 1680 233 1233 -41 737 -41 c 0
 372 -41 74 78 74 381 c 0
 74 766 458 1040 1122 1040 c 2
2859 1561 m 0
 2859 1733 2822 1901 2707 1901 c 0
 2445 1901 2064 1204 2064 532 c 0
 2064 249 2151 25 2372 25 c 0
 2667 25 2999 271 3187 586 c 1
 3211 586 l 1
 3031 271 2683 -41 2167 -41 c 0
 1835 -41 1536 163 1536 655 c 1
 1618 635 l 1
 1626 1413 2154 1925 2748 1925 c 0
 3084 1925 3416 1818 3416 1503 c 0
 3416 880 2319 872 2028 872 c 1
 2028 893 l 1
 2311 893 2859 1016 2859 1561 c 0
EndSplineSet
EndChar

StartChar: perthousand
Encoding: 8240 8240 285
GlifName: perthousand
Width: 6123
Flags: HMW
LayerCount: 2
Fore
SplineSet
5018 -41 m 0
 4596 -41 4301 151 4301 573 c 0
 4301 1241 4800 1761 5386 1761 c 0
 5808 1761 6103 1569 6103 1147 c 0
 6103 479 5604 -41 5018 -41 c 0
5407 1737 m 0
 5165 1737 4854 766 4854 328 c 0
 4854 140 4899 -16 4997 -16 c 0
 5239 -16 5538 938 5538 1376 c 0
 5538 1564 5505 1737 5407 1737 c 0
2990 -41 m 0
 2568 -41 2273 151 2273 573 c 0
 2273 1241 2773 1761 3359 1761 c 0
 3781 1761 4076 1569 4076 1147 c 0
 4076 479 3576 -41 2990 -41 c 0
3379 1737 m 0
 3137 1737 2826 766 2826 328 c 0
 2826 140 2872 -16 2970 -16 c 0
 3212 -16 3514 938 3514 1376 c 0
 3514 1564 3477 1737 3379 1737 c 0
3633 3072 m 1
 3666 3072 l 1
 823 0 l 1
 791 0 l 1
 3633 3072 l 1
1126 1311 m 0
 704 1311 410 1503 410 1925 c 0
 410 2593 909 3113 1495 3113 c 0
 1917 3113 2212 2921 2212 2499 c 0
 2212 1831 1712 1311 1126 1311 c 0
1516 3088 m 0
 1274 3088 963 2117 963 1679 c 0
 963 1491 1008 1335 1106 1335 c 0
 1348 1335 1647 2319 1647 2757 c 0
 1647 2945 1614 3088 1516 3088 c 0
EndSplineSet
EndChar

StartChar: uni2031
Encoding: 8241 8241 286
GlifName: uni2031
Width: 8171
Flags: HMW
LayerCount: 2
Fore
SplineSet
7070 -41 m 0
 6648 -41 6353 151 6353 573 c 0
 6353 1241 6852 1761 7438 1761 c 0
 7860 1761 8155 1569 8155 1147 c 0
 8155 479 7656 -41 7070 -41 c 0
7459 1737 m 0
 7217 1737 6906 766 6906 328 c 0
 6906 140 6951 -16 7049 -16 c 0
 7291 -16 7594 938 7594 1376 c 0
 7594 1564 7557 1737 7459 1737 c 0
5018 -41 m 0
 4596 -41 4301 151 4301 573 c 0
 4301 1241 4800 1761 5386 1761 c 0
 5808 1761 6103 1569 6103 1147 c 0
 6103 479 5604 -41 5018 -41 c 0
5407 1737 m 0
 5165 1737 4854 766 4854 328 c 0
 4854 140 4899 -16 4997 -16 c 0
 5239 -16 5538 938 5538 1376 c 0
 5538 1564 5505 1737 5407 1737 c 0
2990 -41 m 0
 2568 -41 2273 151 2273 573 c 0
 2273 1241 2773 1761 3359 1761 c 0
 3781 1761 4076 1569 4076 1147 c 0
 4076 479 3576 -41 2990 -41 c 0
3379 1737 m 0
 3137 1737 2826 766 2826 328 c 0
 2826 140 2872 -16 2970 -16 c 0
 3212 -16 3514 938 3514 1376 c 0
 3514 1564 3477 1737 3379 1737 c 0
3633 3072 m 1
 3666 3072 l 1
 823 0 l 1
 791 0 l 1
 3633 3072 l 1
1126 1311 m 0
 704 1311 410 1503 410 1925 c 0
 410 2593 909 3113 1495 3113 c 0
 1917 3113 2212 2921 2212 2499 c 0
 2212 1831 1712 1311 1126 1311 c 0
1516 3088 m 0
 1274 3088 963 2117 963 1679 c 0
 963 1491 1008 1335 1106 1335 c 0
 1348 1335 1647 2319 1647 2757 c 0
 1647 2945 1614 3088 1516 3088 c 0
EndSplineSet
EndChar

StartChar: uniFB00
Encoding: 64256 64256 290
GlifName: uniF_B_00
Width: 2969
VWidth: 4730
Flags: HMW
LayerCount: 2
Fore
SplineSet
283 1884 m 1
 3047 1884 l 1
 3047 1860 l 1
 283 1860 l 1
 283 1884 l 1
3547 2785 m 1
 3506 2924 3334 3084 3080 3084 c 0
 2793 3084 2605 2712 2515 2212 c 2
 2154 156 l 2
 2039 -499 1589 -860 1036 -860 c 0
 622 -860 422 -606 422 -393 c 0
 422 -184 553 -57 737 -57 c 0
 901 -57 1069 -155 1069 -360 c 0
 1069 -565 917 -680 741 -680 c 0
 626 -680 533 -614 500 -532 c 1
 541 -671 721 -831 991 -831 c 0
 1298 -831 1487 -459 1573 41 c 2
 1933 2097 l 2
 2048 2752 2499 3113 3031 3113 c 0
 3424 3113 3625 2859 3625 2646 c 0
 3625 2437 3494 2310 3310 2310 c 0
 3146 2310 2978 2408 2978 2613 c 0
 2978 2818 3129 2933 3305 2933 c 0
 3420 2933 3510 2867 3547 2785 c 1
2277 2580 m 1
 2236 2719 2056 2879 1786 2879 c 0
 1479 2879 1298 2528 1208 2028 c 2
 844 -49 l 2
 729 -704 278 -1065 -254 -1065 c 0
 -647 -1065 -848 -811 -848 -598 c 0
 -848 -389 -716 -262 -532 -262 c 0
 -368 -262 -201 -360 -201 -565 c 0
 -201 -770 -352 -885 -528 -885 c 0
 -643 -885 -737 -819 -770 -737 c 1
 -729 -876 -557 -1036 -303 -1036 c 0
 -16 -1036 176 -664 262 -164 c 2
 623 1892 l 2
 738 2547 1188 2908 1741 2908 c 0
 2155 2908 2355 2654 2355 2441 c 0
 2355 2232 2224 2105 2040 2105 c 0
 1876 2105 1708 2203 1708 2408 c 0
 1708 2613 1860 2728 2036 2728 c 0
 2151 2728 2240 2662 2277 2580 c 1
EndSplineSet
Ligature2: "'liga' Standard Ligatures lookup 0-1" f f
LCarets2: 1 0
EndChar

StartChar: uniFB01
Encoding: 64257 64257 291
GlifName: uniF_B_01
Width: 2818
VWidth: 4730
Flags: HMW
LayerCount: 2
Fore
SplineSet
2736 668 m 1
 2580 258 2302 -41 1909 -41 c 0
 1655 -41 1524 53 1524 299 c 0
 1524 319 1524 364 1532 389 c 2
 1884 1860 l 1
 283 1860 l 1
 283 1884 l 1
 2466 1884 l 1
 2056 205 l 2
 2052 180 2048 151 2048 131 c 0
 2048 86 2069 49 2122 49 c 0
 2335 49 2589 316 2720 676 c 1
 2736 668 l 1
2466 2785 m 1
 2417 2941 2228 3084 1933 3084 c 0
 1568 3084 1335 2728 1245 2212 c 2
 844 -49 l 2
 729 -704 278 -1065 -254 -1065 c 0
 -647 -1065 -848 -811 -848 -598 c 0
 -848 -389 -716 -262 -532 -262 c 0
 -368 -262 -201 -360 -201 -565 c 0
 -201 -770 -352 -885 -528 -885 c 0
 -643 -885 -737 -819 -770 -737 c 1
 -729 -876 -557 -1036 -303 -1036 c 0
 -16 -1036 176 -664 262 -164 c 2
 664 2097 l 2
 779 2752 1270 3113 1884 3113 c 0
 2339 3113 2540 2875 2540 2646 c 0
 2540 2437 2412 2310 2228 2310 c 0
 2064 2310 1892 2408 1892 2613 c 0
 1892 2818 2044 2933 2220 2933 c 0
 2335 2933 2429 2867 2466 2785 c 1
EndSplineSet
Ligature2: "'liga' Standard Ligatures lookup 0-1" f i
LCarets2: 1 0
EndChar

StartChar: uniFB02
Encoding: 64258 64258 292
GlifName: uniF_B_02
Width: 2985
VWidth: 4730
Flags: HMW
LayerCount: 2
Fore
SplineSet
2904 668 m 1
 2748 258 2466 -41 2073 -41 c 0
 1819 -41 1688 53 1688 299 c 0
 1688 319 1692 364 1696 389 c 2
 2294 2990 l 1
 2904 3154 l 1
 2220 205 l 2
 2216 180 2212 151 2212 131 c 0
 2212 86 2233 49 2286 49 c 0
 2499 49 2753 324 2884 676 c 1
 2904 668 l 1
283 1884 m 1
 1778 1884 l 1
 1778 1860 l 1
 283 1860 l 1
 283 1884 l 1
2478 2646 m 0
 2478 2437 2347 2310 2163 2310 c 0
 1999 2310 1831 2408 1831 2613 c 0
 1831 2818 1983 2933 2159 2933 c 0
 2274 2933 2363 2867 2400 2785 c 1
 2359 2924 2195 3084 1925 3084 c 0
 1585 3084 1335 2712 1245 2212 c 2
 844 -49 l 2
 729 -704 278 -1065 -254 -1065 c 0
 -647 -1065 -848 -811 -848 -598 c 0
 -848 -389 -716 -262 -532 -262 c 0
 -368 -262 -201 -360 -201 -565 c 0
 -201 -770 -352 -885 -528 -885 c 0
 -643 -885 -737 -819 -770 -737 c 1
 -729 -876 -557 -1036 -303 -1036 c 0
 -16 -1036 176 -664 262 -164 c 2
 664 2097 l 2
 779 2756 1294 3113 1884 3113 c 0
 2290 3113 2478 2875 2478 2646 c 0
EndSplineSet
Ligature2: "'liga' Standard Ligatures lookup 0-1" f l
LCarets2: 1 0
EndChar

StartChar: uniFB03
Encoding: 64259 64259 293
GlifName: uniF_B_03
Width: 4087
VWidth: 4730
Flags: HMW
LayerCount: 2
Fore
SplineSet
4006 668 m 1
 3850 258 3571 -41 3178 -41 c 0
 2924 -41 2793 53 2793 299 c 0
 2793 319 2794 364 2802 389 c 2
 3154 1860 l 1
 283 1860 l 1
 283 1884 l 1
 3736 1884 l 1
 3326 205 l 2
 3322 180 3318 151 3318 131 c 0
 3318 86 3338 49 3391 49 c 0
 3604 49 3859 316 3990 676 c 1
 4006 668 l 1
3809 2646 m 0
 3809 2437 3682 2310 3498 2310 c 0
 3334 2310 3162 2408 3162 2613 c 0
 3162 2818 3314 2933 3490 2933 c 0
 3605 2933 3711 2867 3748 2785 c 1
 3699 2941 3498 3084 3203 3084 c 0
 2838 3084 2605 2728 2515 2212 c 2
 2154 156 l 2
 2039 -499 1589 -860 1036 -860 c 0
 622 -860 422 -606 422 -393 c 0
 422 -184 553 -57 737 -57 c 0
 901 -57 1069 -155 1069 -360 c 0
 1069 -565 921 -680 745 -680 c 0
 630 -680 533 -614 500 -532 c 1
 541 -671 721 -831 991 -831 c 0
 1298 -831 1487 -459 1573 41 c 2
 1933 2097 l 2
 2048 2752 2540 3113 3154 3113 c 0
 3596 3113 3809 2900 3809 2646 c 0
2277 2580 m 1
 2236 2719 2056 2879 1786 2879 c 0
 1479 2879 1298 2528 1208 2028 c 2
 844 -49 l 2
 729 -704 278 -1065 -254 -1065 c 0
 -647 -1065 -848 -811 -848 -598 c 0
 -848 -389 -716 -262 -532 -262 c 0
 -368 -262 -201 -360 -201 -565 c 0
 -201 -770 -352 -885 -528 -885 c 0
 -643 -885 -737 -819 -770 -737 c 1
 -729 -876 -557 -1036 -303 -1036 c 0
 -16 -1036 176 -664 262 -164 c 2
 623 1892 l 2
 738 2547 1188 2908 1741 2908 c 0
 2155 2908 2355 2654 2355 2441 c 0
 2355 2232 2224 2105 2040 2105 c 0
 1876 2105 1708 2203 1708 2408 c 0
 1708 2613 1860 2728 2036 2728 c 0
 2151 2728 2240 2662 2277 2580 c 1
EndSplineSet
Ligature2: "'liga' Standard Ligatures lookup 0-1" f f i
LCarets2: 2 0 0
EndChar

StartChar: uniFB04
Encoding: 64260 64260 294
GlifName: uniF_B_04
Width: 4255
VWidth: 4730
Flags: HMW
LayerCount: 2
Fore
SplineSet
4174 668 m 1
 4018 258 3735 -41 3342 -41 c 0
 3088 -41 2957 53 2957 299 c 0
 2957 319 2962 364 2966 389 c 2
 3564 2990 l 1
 4174 3154 l 1
 3490 205 l 2
 3486 180 3482 151 3482 131 c 0
 3482 86 3502 49 3555 49 c 0
 3768 49 4022 324 4153 676 c 1
 4174 668 l 1
283 1884 m 1
 3047 1884 l 1
 3047 1860 l 1
 283 1860 l 1
 283 1884 l 1
3670 2785 m 1
 3629 2924 3465 3084 3195 3084 c 0
 2855 3084 2605 2712 2515 2212 c 2
 2154 156 l 2
 2039 -499 1597 -860 1044 -860 c 0
 630 -860 430 -606 430 -393 c 0
 430 -184 561 -57 745 -57 c 0
 909 -57 1077 -155 1077 -360 c 0
 1077 -565 926 -680 750 -680 c 0
 635 -680 541 -614 508 -532 c 1
 549 -671 729 -831 999 -831 c 0
 1306 -831 1495 -459 1581 41 c 2
 1933 2097 l 2
 2048 2756 2564 3113 3154 3113 c 0
 3568 3113 3748 2859 3748 2646 c 0
 3748 2437 3616 2310 3432 2310 c 0
 3268 2310 3101 2408 3101 2613 c 0
 3101 2818 3252 2933 3428 2933 c 0
 3543 2933 3633 2867 3670 2785 c 1
2277 2580 m 1
 2236 2719 2056 2879 1786 2879 c 0
 1479 2879 1298 2528 1208 2028 c 2
 844 -49 l 2
 729 -704 278 -1065 -254 -1065 c 0
 -647 -1065 -848 -811 -848 -598 c 0
 -848 -389 -716 -262 -532 -262 c 0
 -368 -262 -201 -360 -201 -565 c 0
 -201 -770 -352 -885 -528 -885 c 0
 -643 -885 -737 -819 -770 -737 c 1
 -729 -876 -557 -1036 -303 -1036 c 0
 -16 -1036 176 -664 262 -164 c 2
 623 1892 l 2
 738 2547 1188 2908 1741 2908 c 0
 2155 2908 2355 2654 2355 2441 c 0
 2355 2232 2224 2105 2040 2105 c 0
 1876 2105 1708 2203 1708 2408 c 0
 1708 2613 1860 2728 2036 2728 c 0
 2151 2728 2240 2662 2277 2580 c 1
EndSplineSet
Ligature2: "'liga' Standard Ligatures lookup 0-1" f f l
LCarets2: 2 0 0
EndChar

StartChar: ogonek
Encoding: 731 731 295
GlifName: ogonek
Width: 2252
Flags: HMW
LayerCount: 2
Fore
SplineSet
1446 -463 m 1
 1385 -578 1224 -803 872 -803 c 0
 622 -803 406 -717 406 -492 c 0
 406 -164 934 74 1266 176 c 1
 1274 164 l 1
 1147 86 967 -151 967 -446 c 0
 967 -614 1016 -713 1106 -713 c 0
 1253 -713 1376 -549 1425 -455 c 1
 1446 -463 l 1
EndSplineSet
EndChar

StartChar: dotlessi
Encoding: 305 305 296
GlifName: dotlessi
Width: 1499
VWidth: 4730
Flags: HMW
LayerCount: 2
Fore
SplineSet
1417 668 m 1
 1261 258 983 -41 590 -41 c 0
 336 -41 205 53 205 299 c 0
 205 319 205 364 213 389 c 2
 565 1860 l 1
 254 1860 l 1
 254 1884 l 1
 1147 1884 l 1
 737 205 l 2
 733 180 729 151 729 131 c 0
 729 86 750 49 803 49 c 0
 1016 49 1270 316 1401 676 c 1
 1417 668 l 1
EndSplineSet
EndChar

StartChar: uni0237
Encoding: 567 567 297
GlifName: uni0237
Width: 1224
VWidth: 4730
Flags: HMW
LayerCount: 2
Fore
SplineSet
-758 -729 m 1
 -709 -885 -524 -1036 -295 -1036 c 0
 94 -1036 69 -410 184 82 c 2
 598 1860 l 1
 217 1860 l 1
 217 1884 l 1
 1171 1884 l 1
 770 -49 l 2
 664 -561 258 -1065 -274 -1065 c 0
 -606 -1065 -840 -811 -840 -598 c 0
 -840 -389 -667 -242 -483 -242 c 0
 -319 -242 -172 -360 -172 -532 c 0
 -172 -725 -336 -860 -524 -860 c 0
 -639 -860 -717 -799 -758 -729 c 1
EndSplineSet
EndChar

StartChar: kgreenlandic
Encoding: 312 312 306
GlifName: kgreenlandic
Width: 2514
VWidth: 4730
Flags: HMW
LayerCount: 2
Fore
SplineSet
2425 668 m 1
 2269 258 2007 -41 1634 -41 c 0
 1380 -41 1221 53 1221 299 c 0
 1221 319 1225 364 1229 389 c 2
 1270 573 l 2
 1319 811 1462 1139 1245 1139 c 0
 1040 1139 975 934 938 778 c 1
 918 778 l 1
 1000 1130 1147 1196 1376 1196 c 0
 1659 1196 1933 1028 1810 496 c 2
 1737 139 l 2
 1737 131 1729 110 1729 102 c 0
 1729 57 1757 37 1810 37 c 0
 2031 37 2281 332 2404 676 c 1
 2425 668 l 1
909 1319 m 1
 934 1303 l 1
 942 1115 1007 1016 1130 1016 c 0
 1294 1016 1377 1221 1483 1483 c 0
 1598 1762 1766 1925 1991 1925 c 0
 2216 1925 2417 1765 2417 1511 c 0
 2417 1306 2278 1184 2114 1184 c 0
 1950 1184 1827 1314 1827 1470 c 0
 1827 1626 1958 1745 2114 1745 c 0
 2245 1745 2339 1671 2372 1581 c 1
 2347 1769 2188 1901 1991 1901 c 0
 1786 1901 1618 1753 1503 1466 c 0
 1392 1187 1306 991 1130 991 c 0
 995 991 909 1106 909 1319 c 1
614 1860 m 1
 254 1860 l 1
 254 1884 l 1
 1196 1884 l 1
 758 0 l 1
 184 0 l 1
 614 1860 l 1
EndSplineSet
EndChar

StartChar: breve
Encoding: 728 728 307
GlifName: breve
Width: 1228
VWidth: 4730
Flags: HMW
LayerCount: 2
Fore
SplineSet
680 3109 m 1
 647 2933 844 2847 1065 2847 c 0
 1286 2847 1561 2908 1614 3109 c 1
 1638 3109 l 1
 1597 2859 1454 2458 1024 2458 c 0
 635 2458 614 2859 655 3109 c 1
 680 3109 l 1
EndSplineSet
EndChar

StartChar: thorn
Encoding: 254 254 318
GlifName: thorn
Width: 2502
VWidth: 4730
Flags: HMW
LayerCount: 2
Fore
SplineSet
905 602 m 0
 905 344 979 115 1139 115 c 0
 1422 115 1761 823 1761 1372 c 0
 1761 1626 1679 1794 1532 1794 c 0
 1180 1794 905 1044 905 602 c 0
885 602 m 0
 885 1044 1159 1929 1737 1929 c 0
 2020 1929 2392 1765 2392 1233 c 0
 2392 414 1741 -33 1319 -33 c 0
 1008 -33 885 225 885 602 c 0
-348 -999 m 1
 778 -999 l 1
 778 -1024 l 1
 -348 -1024 l 1
 -348 -999 l 1
852 3047 m 1
 565 3047 l 1
 565 3072 l 1
 1434 3072 l 1
 999 1184 l 1
 926 909 l 1
 893 696 l 1
 492 -1024 l 1
 -82 -1024 l 1
 852 3047 l 1
EndSplineSet
EndChar

StartChar: Thorn
Encoding: 222 222 319
GlifName: T_horn
Width: 2744
Flags: HMW
LayerCount: 2
Fore
SplineSet
1384 737 m 2
 934 737 l 1
 934 762 l 1
 1278 762 l 2
 1794 762 2052 1438 2052 1884 c 0
 2052 2126 1979 2433 1688 2433 c 2
 1057 2433 l 1
 1057 2458 l 1
 1794 2458 l 2
 2331 2458 2744 2274 2744 1782 c 0
 2744 1168 2207 737 1384 737 c 2
-143 25 m 1
 1229 25 l 1
 1229 0 l 1
 -143 0 l 1
 -143 25 l 1
557 3072 m 1
 1933 3072 l 1
 1933 3047 l 1
 557 3047 l 1
 557 3072 l 1
918 3072 m 1
 1552 3072 l 1
 840 0 l 1
 205 0 l 1
 918 3072 l 1
EndSplineSet
EndChar

StartChar: Lslash
Encoding: 321 321 324
GlifName: L_slash
Width: 2486
Flags: HMW
LayerCount: 2
Fore
SplineSet
164 1475 m 1
 1782 2376 l 1
 1782 2347 l 1
 164 1446 l 1
 164 1475 l 1
EndSplineSet
Refer: 23 76 N 1 0 0 1 0 0 2
EndChar

StartChar: lslash
Encoding: 322 322 325
GlifName: lslash
Width: 1462
VWidth: 4730
Flags: HMW
LayerCount: 2
Fore
SplineSet
127 1556 m 1
 1540 2376 l 1
 1540 2343 l 1
 127 1524 l 1
 127 1556 l 1
EndSplineSet
Refer: 49 108 N 1 0 0 1 0 0 2
EndChar

StartChar: eth
Encoding: 240 240 329
GlifName: eth
Width: 2498
VWidth: 4730
Flags: HMW
LayerCount: 2
Fore
SplineSet
963 2580 m 1
 2765 2580 l 1
 2765 2556 l 1
 963 2556 l 1
 963 2580 l 1
2486 1597 m 0
 2486 737 1790 -41 1069 -41 c 0
 512 -41 164 205 164 737 c 0
 164 1556 893 2007 1389 2007 c 0
 1766 2007 1822 1777 1802 1298 c 1
 1778 1516 l 1
 1778 1741 1700 1950 1520 1950 c 0
 1135 1950 795 1061 795 492 c 0
 795 209 840 -16 1061 -16 c 0
 1405 -16 1778 947 1778 1516 c 1
 1790 1507 l 1
 1819 2384 1769 3092 983 3092 c 1
 983 3113 l 1
 1999 3113 2486 2449 2486 1597 c 0
EndSplineSet
EndChar

StartChar: OE
Encoding: 338 338 330
GlifName: O_E_
Width: 4153
Flags: HMW
LayerCount: 2
Fore
SplineSet
2105 3072 m 1
 2105 3019 l 1
 1392 3019 926 1667 926 717 c 0
 926 320 1048 53 1413 53 c 1
 1413 0 l 1
 786 0 254 295 254 1024 c 0
 254 2224 1151 3072 2105 3072 c 1
EndSplineSet
Refer: 16 69 N 1 0 0 1 1606 0 2
EndChar

StartChar: germandbls
Encoding: 223 223 332
GlifName: germandbls
Width: 3137
VWidth: 4730
Flags: HMW
LayerCount: 2
Fore
SplineSet
3015 881 m 0
 3015 205 2404 -41 1929 -41 c 0
 1523 -41 1343 242 1343 557 c 0
 1343 807 1495 987 1700 987 c 0
 1884 987 2023 864 2023 676 c 0
 2023 504 1839 369 1679 369 c 0
 1519 369 1409 455 1368 561 c 1
 1356 250 1548 -8 1888 -8 c 0
 2253 -8 2376 516 2376 901 c 0
 2376 1286 2220 1647 1855 1647 c 1
 1855 1667 l 1
 2596 1667 3015 1413 3015 881 c 0
-102 25 m 1
 1249 25 l 1
 1249 0 l 1
 -102 0 l 1
 -102 25 l 1
1855 1655 m 1
 1855 1675 l 1
 2383 1675 2621 2179 2621 2523 c 0
 2621 2818 2507 3092 2204 3092 c 0
 1614 3092 1458 2523 1331 1970 c 2
 881 0 l 1
 266 0 l 1
 729 2011 l 2
 893 2740 1413 3113 2224 3113 c 0
 2769 3113 3269 2925 3269 2462 c 0
 3269 1970 2678 1655 1855 1655 c 1
EndSplineSet
EndChar

StartChar: uni0212
Encoding: 530 530 333
GlifName: uni0212
Width: 3141
VWidth: 0
Flags: HMW
LayerCount: 2
Fore
SplineSet
2441 3359 m 1
 2474 3535 2277 3621 2056 3621 c 0
 1835 3621 1560 3560 1507 3359 c 1
 1483 3359 l 1
 1524 3609 1667 4010 2097 4010 c 0
 2507 4010 2507 3609 2466 3359 c 1
 2441 3359 l 1
EndSplineSet
Refer: 29 82 N 1 0 0 1 0 0 3
EndChar

StartChar: uni0213
Encoding: 531 531 334
GlifName: uni0213
Width: 1953
VWidth: 0
Flags: HMW
LayerCount: 2
Fore
SplineSet
1745 2191 m 1
 1778 2367 1581 2454 1360 2454 c 0
 1139 2454 864 2392 811 2191 c 1
 786 2191 l 1
 827 2441 971 2843 1401 2843 c 0
 1811 2843 1810 2441 1769 2191 c 1
 1745 2191 l 1
EndSplineSet
Refer: 55 114 N 1 0 0 1 0 0 3
EndChar

StartChar: circumflex
Encoding: 710 710 335
GlifName: circumflex
Width: 1781
Flags: HMW
LayerCount: 2
Fore
SplineSet
1421 2867 m 1
 668 2589 l 1
 655 2601 l 1
 1257 3154 l 1
 1606 3154 l 1
 2028 2601 l 1
 2015 2589 l 1
 1421 2867 l 1
EndSplineSet
EndChar

StartChar: caron
Encoding: 711 711 336
GlifName: caron
Width: 1781
Flags: HMW
LayerCount: 2
Fore
SplineSet
1286 2970 m 1
 2040 3248 l 1
 2052 3236 l 1
 1454 2683 l 1
 1106 2683 l 1
 680 3236 l 1
 692 3248 l 1
 1286 2970 l 1
EndSplineSet
EndChar

StartChar: pi
Encoding: 960 960 337
GlifName: pi
Width: 2625
VWidth: 4730
Flags: HMW
LayerCount: 2
Fore
SplineSet
406 -41 m 0
 218 -41 102 74 102 217 c 0
 102 639 668 389 901 1184 c 2
 1094 1843 l 1
 1323 1843 l 1
 1098 995 l 2
 938 389 828 -41 406 -41 c 0
2400 422 m 1
 2285 135 2093 -41 1774 -41 c 0
 1500 -41 1310 168 1376 434 c 2
 1704 1720 l 1
 2318 1720 l 1
 1966 406 l 2
 1925 254 1991 201 2089 201 c 0
 2232 201 2306 295 2384 434 c 1
 2400 422 l 1
2687 1884 m 1
 2515 1311 l 1
 328 1311 l 1
 254 1004 l 1
 229 1004 l 1
 438 1884 l 1
 2687 1884 l 1
EndSplineSet
EndChar

StartChar: uni1E9E
Encoding: 7838 7838 338
GlifName: uni1E_9E_
Width: 3506
VWidth: 4730
Flags: HMW
LayerCount: 2
Fore
SplineSet
1376 598 m 0
 1376 819 1515 987 1720 987 c 0
 1904 987 2044 864 2044 676 c 0
 2044 504 1868 369 1708 369 c 0
 1540 369 1458 467 1417 541 c 1
 1437 230 1667 -4 2064 -4 c 0
 2531 -4 2736 557 2736 983 c 0
 2736 1327 2609 1647 2224 1647 c 1
 2224 1667 l 1
 3006 1667 3383 1455 3383 963 c 0
 3383 267 2740 -41 2122 -41 c 0
 1577 -41 1376 266 1376 598 c 0
-102 25 m 1
 1270 25 l 1
 1270 0 l 1
 -102 0 l 1
 -102 25 l 1
2224 1655 m 1
 2224 1675 l 1
 2855 1675 2982 2261 2982 2564 c 0
 2982 2818 2855 3092 2429 3092 c 0
 1737 3092 1470 2478 1331 1868 c 2
 901 0 l 1
 266 0 l 1
 705 1909 l 2
 885 2695 1515 3113 2449 3113 c 0
 3178 3113 3637 2904 3637 2482 c 0
 3637 2052 3150 1655 2224 1655 c 1
EndSplineSet
EndChar

StartChar: uni203D
Encoding: 8253 8253 339
GlifName: uni203D_
Width: 2457
Flags: HMW
LayerCount: 2
Fore
SplineSet
1794 2228 m 0
 1720 1794 1319 1609 1155 995 c 1
 1130 995 l 1
 1253 1609 1188 1774 1188 2085 c 0
 1188 2355 1269 2552 1511 2552 c 0
 1695 2552 1827 2416 1794 2228 c 0
2064 2499 m 0
 2064 2802 1946 3080 1561 3080 c 0
 1082 3080 639 2753 549 2499 c 1
 594 2548 700 2626 811 2626 c 0
 950 2626 1102 2524 1102 2327 c 0
 1102 2102 909 2003 766 2003 c 0
 602 2003 471 2130 471 2339 c 0
 471 2716 1020 3113 1602 3113 c 0
 2139 3113 2642 2929 2642 2417 c 0
 2642 1803 1913 1372 1262 1372 c 1
 1262 1389 l 1
 1692 1516 2064 1995 2064 2499 c 0
EndSplineSet
Refer: 1 46 N 1 0 0 1 549 0 2
EndChar

StartChar: R.alt
Encoding: 65536 -1 340
GlifName: R_.alt
Width: 3072
Flags: HMW
LayerCount: 2
Fore
SplineSet
2753 0 m 1
 2687 0 2531 0 2384 0 c 0
 1266 0 2409 1565 1442 1565 c 2
 1098 1565 l 1
 1098 1577 l 1
 1630 1577 l 2
 3096 1577 2150 25 2654 25 c 0
 2699 25 2753 25 2753 25 c 1
 2753 0 l 1
950 3072 m 1
 1589 3072 l 1
 868 0 l 1
 238 0 l 1
 950 3072 l 1
-156 25 m 1
 1319 25 l 1
 1319 0 l 1
 -156 0 l 1
 -156 25 l 1
1630 1569 m 2
 1098 1569 l 1
 1098 1589 l 1
 1524 1589 l 2
 2102 1589 2314 2195 2314 2560 c 0
 2314 2761 2244 3047 1892 3047 c 2
 524 3047 l 1
 524 3072 l 1
 2040 3072 l 2
 2577 3072 2982 2909 2982 2458 c 0
 2982 1885 2453 1569 1630 1569 c 2
EndSplineSet
EndChar

StartChar: J.alt
Encoding: 65537 -1 341
GlifName: J_.alt
Width: 2572
Flags: HMW
LayerCount: 2
Fore
SplineSet
1499 3072 m 1
 3047 3072 l 1
 3047 3047 l 1
 1499 3047 l 1
 1499 3072 l 1
1991 3072 m 1
 2638 3072 l 1
 2187 1147 l 2
 2040 524 1400 -41 741 -41 c 0
 303 -41 20 266 20 655 c 0
 20 991 213 1188 459 1188 c 0
 684 1188 852 1053 852 803 c 0
 852 598 680 422 438 422 c 0
 237 422 90 566 53 664 c 1
 37 287 323 -16 741 -16 c 0
 1237 -16 1421 475 1540 1024 c 2
 1991 3072 l 1
EndSplineSet
EndChar

StartChar: four.alt
Encoding: 65538 -1 342
GlifName: four.alt
Width: 2682
VWidth: 4730
Flags: HMW
LayerCount: 2
Fore
SplineSet
2376 2040 m 1
 1921 -4 l 1
 1286 -4 l 1
 1700 1855 l 1
 1905 1855 2233 1958 2376 2040 c 1
2261 25 m 1
 2261 0 l 1
 930 0 l 1
 930 25 l 1
 2261 25 l 1
115 811 m 1
 2478 811 l 1
 2478 786 l 1
 61 786 l 1
 696 1605 1741 2437 1884 3072 c 1
 2572 3072 l 1
 2474 2396 709 1544 115 811 c 1
EndSplineSet
EndChar

StartChar: fj.lig
Encoding: 65539 -1 343
GlifName: fj.lig
Width: 2695
VWidth: 4730
Flags: HMW
LayerCount: 2
Fore
SplineSet
1544 164 m 2
 1896 1860 l 1
 283 1860 l 1
 283 1884 l 1
 2470 1884 l 1
 2130 156 l 2
 2032 -360 1569 -860 1016 -860 c 0
 643 -860 410 -622 410 -401 c 0
 410 -192 570 -57 754 -57 c 0
 918 -57 1077 -168 1077 -348 c 0
 1077 -545 917 -672 745 -672 c 0
 622 -672 512 -602 496 -532 c 1
 545 -692 738 -836 1008 -836 c 0
 1377 -836 1438 -328 1544 164 c 2
2474 2773 m 1
 2429 2937 2248 3084 1933 3084 c 0
 1585 3084 1335 2712 1245 2212 c 2
 844 -49 l 2
 729 -704 286 -1065 -246 -1065 c 0
 -639 -1065 -840 -811 -840 -598 c 0
 -840 -389 -708 -262 -524 -262 c 0
 -360 -262 -193 -360 -193 -565 c 0
 -193 -770 -352 -885 -528 -885 c 0
 -667 -885 -754 -774 -770 -725 c 1
 -733 -856 -569 -1032 -295 -1032 c 0
 -8 -1032 184 -664 270 -164 c 2
 664 2097 l 2
 779 2752 1270 3113 1884 3113 c 0
 2359 3113 2540 2859 2540 2646 c 0
 2540 2437 2412 2310 2228 2310 c 0
 2064 2310 1892 2408 1892 2613 c 0
 1892 2818 2052 2933 2228 2933 c 0
 2359 2933 2441 2839 2474 2773 c 1
EndSplineSet
LCarets2: 1 0
Ligature2: "'liga' Standard Ligatures lookup 0-1" f j
EndChar

StartChar: v.alt
Encoding: 65540 -1 344
Width: 2174
VWidth: 4730
Flags: HW
LayerCount: 2
Fore
SplineSet
881 1946 m 1
 889 1929 l 1
 721 1835 676 1724 676 1577 c 0
 676 1229 1122 1061 1122 553 c 0
 1122 483 1106 266 1098 172 c 1
 1729 508 2130 872 2130 1409 c 0
 2130 1466 2121 1540 2105 1569 c 1
 2089 1446 1975 1249 1729 1249 c 0
 1504 1249 1380 1421 1380 1585 c 0
 1380 1769 1520 1921 1733 1921 c 0
 2052 1921 2154 1659 2154 1409 c 0
 2154 717 1508 340 709 -49 c 1
 500 -8 l 1
 508 82 545 352 545 434 c 0
 545 749 123 1020 123 1323 c 0
 123 1651 512 1827 881 1946 c 1
EndSplineSet
EndChar

StartChar: uni2116
Encoding: 8470 8470 345
Width: 4694
Flags: HW
LayerCount: 2
Fore
SplineSet
3416 1303 m 1
 4461 1303 l 1
 4456 1278 l 1
 3412 1278 l 1
 3416 1303 l 1
4358 3113 m 0
 4718 3113 4960 2928 4960 2568 c 0
 4960 1929 4477 1556 3998 1556 c 0
 3638 1556 3391 1741 3391 2101 c 0
 3391 2740 3879 3113 4358 3113 c 0
3830 1888 m 0
 3830 1659 3891 1581 4014 1581 c 0
 4268 1581 4522 2310 4522 2781 c 0
 4522 3010 4461 3088 4338 3088 c 0
 4084 3088 3830 2359 3830 1888 c 0
EndSplineSet
Refer: 25 78 N 1 0 0 1 106 0 2
EndChar

StartChar: Euro
Encoding: 8364 8364 346
Width: 3133
Flags: HW
LayerCount: 2
Fore
SplineSet
3203 2613 m 1
 3154 2793 2884 3080 2474 3080 c 0
 1700 3080 1266 1778 1266 840 c 0
 1266 373 1458 0 1823 0 c 0
 2212 0 2667 344 2814 729 c 1
 2839 729 l 1
 2692 332 2229 -41 1733 -41 c 0
 1196 -41 590 286 590 1126 c 0
 590 2252 1446 3113 2433 3113 c 0
 2933 3113 3277 2736 3277 2462 c 0
 3277 2233 3105 2105 2941 2105 c 0
 2798 2105 2605 2212 2605 2437 c 0
 2605 2642 2789 2765 2949 2765 c 0
 3072 2765 3166 2683 3203 2613 c 1
EndSplineSet
Refer: 88 61 N 1 0 0 1 -123 -287 2
EndChar
